<mxfile host="app.diagrams.net" agent="Mozilla/5.0 (Windows NT 10.0; Win64; x64) AppleWebKit/537.36 (KHTML, like Gecko) Chrome/138.0.0.0 Safari/537.36" version="28.0.4">
  <diagram name="Page-1" id="PdS_6scYZCDDdevV2K5-">
    <mxGraphModel dx="7774" dy="4280" grid="1" gridSize="10" guides="1" tooltips="1" connect="1" arrows="1" fold="1" page="1" pageScale="1" pageWidth="827" pageHeight="1169" math="0" shadow="0">
      <root>
        <mxCell id="0" />
        <mxCell id="1" parent="0" />
        <mxCell id="b8LFJ1e8wzKBbjeRUcbo-1" value="ทบทวนสัญลักษณ์" style="swimlane;fontFamily=Sarabun;fontSource=https://fonts.googleapis.com/css?family=Sarabun;" parent="1" vertex="1">
          <mxGeometry x="80" y="30" width="640" height="290" as="geometry" />
        </mxCell>
        <mxCell id="b8LFJ1e8wzKBbjeRUcbo-2" value="&lt;font data-font-src=&quot;https://fonts.googleapis.com/css?family=Sarabun&quot; face=&quot;Sarabun&quot;&gt;เริ่มต้น&lt;/font&gt;" style="ellipse;whiteSpace=wrap;html=1;" parent="b8LFJ1e8wzKBbjeRUcbo-1" vertex="1">
          <mxGeometry x="20" y="40" width="130" height="30" as="geometry" />
        </mxCell>
        <mxCell id="b8LFJ1e8wzKBbjeRUcbo-3" value="" style="endArrow=classic;html=1;rounded=0;" parent="b8LFJ1e8wzKBbjeRUcbo-1" edge="1">
          <mxGeometry width="50" height="50" relative="1" as="geometry">
            <mxPoint x="84.5" y="70" as="sourcePoint" />
            <mxPoint x="84.5" y="120" as="targetPoint" />
          </mxGeometry>
        </mxCell>
        <mxCell id="b8LFJ1e8wzKBbjeRUcbo-4" value="&lt;font face=&quot;Sarabun&quot;&gt;สิ้นสุด&lt;/font&gt;" style="ellipse;whiteSpace=wrap;html=1;" parent="b8LFJ1e8wzKBbjeRUcbo-1" vertex="1">
          <mxGeometry x="150" y="90" width="130" height="30" as="geometry" />
        </mxCell>
        <mxCell id="b8LFJ1e8wzKBbjeRUcbo-5" value="" style="endArrow=classic;html=1;rounded=0;" parent="b8LFJ1e8wzKBbjeRUcbo-1" edge="1">
          <mxGeometry width="50" height="50" relative="1" as="geometry">
            <mxPoint x="214.5" y="40" as="sourcePoint" />
            <mxPoint x="214.5" y="90" as="targetPoint" />
          </mxGeometry>
        </mxCell>
        <mxCell id="b8LFJ1e8wzKBbjeRUcbo-6" value="กระบวนการ" style="rounded=0;whiteSpace=wrap;html=1;fontFamily=Sarabun;fontSource=https://fonts.googleapis.com/css?family=Sarabun;" parent="b8LFJ1e8wzKBbjeRUcbo-1" vertex="1">
          <mxGeometry x="320" y="70" width="120" height="30" as="geometry" />
        </mxCell>
        <mxCell id="b8LFJ1e8wzKBbjeRUcbo-7" value="" style="endArrow=classic;html=1;rounded=0;" parent="b8LFJ1e8wzKBbjeRUcbo-1" edge="1">
          <mxGeometry width="50" height="50" relative="1" as="geometry">
            <mxPoint x="379" y="40" as="sourcePoint" />
            <mxPoint x="379.5" y="70" as="targetPoint" />
          </mxGeometry>
        </mxCell>
        <mxCell id="b8LFJ1e8wzKBbjeRUcbo-8" value="" style="endArrow=classic;html=1;rounded=0;" parent="b8LFJ1e8wzKBbjeRUcbo-1" edge="1">
          <mxGeometry width="50" height="50" relative="1" as="geometry">
            <mxPoint x="379.75" y="100" as="sourcePoint" />
            <mxPoint x="380.25" y="130" as="targetPoint" />
          </mxGeometry>
        </mxCell>
        <mxCell id="b8LFJ1e8wzKBbjeRUcbo-9" value="ประโยคเงื่อนไข" style="rhombus;whiteSpace=wrap;html=1;fontFamily=Sarabun;fontSource=https://fonts.googleapis.com/css?family=Sarabun;" parent="b8LFJ1e8wzKBbjeRUcbo-1" vertex="1">
          <mxGeometry x="490" y="60" width="100" height="60" as="geometry" />
        </mxCell>
        <mxCell id="b8LFJ1e8wzKBbjeRUcbo-10" value="" style="endArrow=classic;html=1;rounded=0;" parent="b8LFJ1e8wzKBbjeRUcbo-1" edge="1">
          <mxGeometry width="50" height="50" relative="1" as="geometry">
            <mxPoint x="539.71" y="30" as="sourcePoint" />
            <mxPoint x="540.21" y="60" as="targetPoint" />
          </mxGeometry>
        </mxCell>
        <mxCell id="b8LFJ1e8wzKBbjeRUcbo-11" value="" style="endArrow=classic;html=1;rounded=0;" parent="b8LFJ1e8wzKBbjeRUcbo-1" edge="1">
          <mxGeometry width="50" height="50" relative="1" as="geometry">
            <mxPoint x="539.71" y="120" as="sourcePoint" />
            <mxPoint x="540" y="175" as="targetPoint" />
          </mxGeometry>
        </mxCell>
        <mxCell id="b8LFJ1e8wzKBbjeRUcbo-12" value="จริง" style="edgeLabel;html=1;align=center;verticalAlign=middle;resizable=0;points=[];fontFamily=Sarabun;fontSource=https://fonts.googleapis.com/css?family=Sarabun;" parent="b8LFJ1e8wzKBbjeRUcbo-11" vertex="1" connectable="0">
          <mxGeometry x="-0.4142" y="-1" relative="1" as="geometry">
            <mxPoint as="offset" />
          </mxGeometry>
        </mxCell>
        <mxCell id="b8LFJ1e8wzKBbjeRUcbo-13" value="" style="endArrow=classic;html=1;rounded=0;exitX=1;exitY=0.5;exitDx=0;exitDy=0;" parent="b8LFJ1e8wzKBbjeRUcbo-1" source="b8LFJ1e8wzKBbjeRUcbo-9" edge="1">
          <mxGeometry width="50" height="50" relative="1" as="geometry">
            <mxPoint x="620" y="95" as="sourcePoint" />
            <mxPoint x="610" y="175" as="targetPoint" />
            <Array as="points">
              <mxPoint x="610" y="90" />
            </Array>
          </mxGeometry>
        </mxCell>
        <mxCell id="b8LFJ1e8wzKBbjeRUcbo-14" value="&lt;font data-font-src=&quot;https://fonts.googleapis.com/css?family=Sarabun&quot; face=&quot;Sarabun&quot;&gt;เท็จ&lt;/font&gt;" style="edgeLabel;html=1;align=center;verticalAlign=middle;resizable=0;points=[];" parent="b8LFJ1e8wzKBbjeRUcbo-13" vertex="1" connectable="0">
          <mxGeometry x="-0.0019" y="-2" relative="1" as="geometry">
            <mxPoint as="offset" />
          </mxGeometry>
        </mxCell>
        <mxCell id="b8LFJ1e8wzKBbjeRUcbo-15" value="&lt;font data-font-src=&quot;https://fonts.googleapis.com/css?family=Sarabun&quot; face=&quot;Sarabun&quot;&gt;ฟังก์ชัน/โมดูล&lt;/font&gt;" style="shape=process;whiteSpace=wrap;html=1;backgroundOutline=1;" parent="b8LFJ1e8wzKBbjeRUcbo-1" vertex="1">
          <mxGeometry x="25" y="180" width="120" height="30" as="geometry" />
        </mxCell>
        <mxCell id="b8LFJ1e8wzKBbjeRUcbo-16" value="" style="endArrow=classic;html=1;rounded=0;" parent="b8LFJ1e8wzKBbjeRUcbo-1" edge="1">
          <mxGeometry width="50" height="50" relative="1" as="geometry">
            <mxPoint x="84.70999999999998" y="150" as="sourcePoint" />
            <mxPoint x="85.20999999999998" y="180" as="targetPoint" />
          </mxGeometry>
        </mxCell>
        <mxCell id="b8LFJ1e8wzKBbjeRUcbo-17" value="" style="endArrow=classic;html=1;rounded=0;" parent="b8LFJ1e8wzKBbjeRUcbo-1" edge="1">
          <mxGeometry width="50" height="50" relative="1" as="geometry">
            <mxPoint x="84.70999999999998" y="210" as="sourcePoint" />
            <mxPoint x="85.20999999999998" y="240" as="targetPoint" />
          </mxGeometry>
        </mxCell>
        <mxCell id="b8LFJ1e8wzKBbjeRUcbo-18" value="" style="strokeWidth=2;html=1;shape=mxgraph.flowchart.start_2;whiteSpace=wrap;" parent="b8LFJ1e8wzKBbjeRUcbo-1" vertex="1">
          <mxGeometry x="205" y="185" width="20" height="20" as="geometry" />
        </mxCell>
        <mxCell id="b8LFJ1e8wzKBbjeRUcbo-19" value="" style="endArrow=classic;html=1;rounded=0;" parent="b8LFJ1e8wzKBbjeRUcbo-1" edge="1">
          <mxGeometry width="50" height="50" relative="1" as="geometry">
            <mxPoint x="214.70999999999998" y="155" as="sourcePoint" />
            <mxPoint x="215.20999999999998" y="185" as="targetPoint" />
          </mxGeometry>
        </mxCell>
        <mxCell id="b8LFJ1e8wzKBbjeRUcbo-20" value="" style="endArrow=classic;html=1;rounded=0;entryX=0;entryY=0.5;entryDx=0;entryDy=0;entryPerimeter=0;" parent="b8LFJ1e8wzKBbjeRUcbo-1" target="b8LFJ1e8wzKBbjeRUcbo-18" edge="1">
          <mxGeometry width="50" height="50" relative="1" as="geometry">
            <mxPoint x="189.99999999999997" y="155" as="sourcePoint" />
            <mxPoint x="190.49999999999997" y="185" as="targetPoint" />
            <Array as="points">
              <mxPoint x="190" y="180" />
            </Array>
          </mxGeometry>
        </mxCell>
        <mxCell id="b8LFJ1e8wzKBbjeRUcbo-21" value="" style="endArrow=classic;html=1;rounded=0;entryX=1;entryY=0.5;entryDx=0;entryDy=0;entryPerimeter=0;" parent="b8LFJ1e8wzKBbjeRUcbo-1" target="b8LFJ1e8wzKBbjeRUcbo-18" edge="1">
          <mxGeometry width="50" height="50" relative="1" as="geometry">
            <mxPoint x="239.99999999999997" y="155" as="sourcePoint" />
            <mxPoint x="240.49999999999997" y="185" as="targetPoint" />
            <Array as="points">
              <mxPoint x="240" y="180" />
            </Array>
          </mxGeometry>
        </mxCell>
        <mxCell id="b8LFJ1e8wzKBbjeRUcbo-22" value="" style="endArrow=classic;html=1;rounded=0;" parent="b8LFJ1e8wzKBbjeRUcbo-1" edge="1">
          <mxGeometry width="50" height="50" relative="1" as="geometry">
            <mxPoint x="214.70999999999998" y="205" as="sourcePoint" />
            <mxPoint x="215.20999999999998" y="235" as="targetPoint" />
          </mxGeometry>
        </mxCell>
        <mxCell id="b8LFJ1e8wzKBbjeRUcbo-23" value="&lt;font data-font-src=&quot;https://fonts.googleapis.com/css?family=Sarabun&quot; face=&quot;Sarabun&quot;&gt;ตัวเชื่อม&lt;/font&gt;" style="text;html=1;align=center;verticalAlign=middle;resizable=0;points=[];autosize=1;strokeColor=none;fillColor=none;" parent="b8LFJ1e8wzKBbjeRUcbo-1" vertex="1">
          <mxGeometry x="220" y="190" width="60" height="30" as="geometry" />
        </mxCell>
        <mxCell id="b8LFJ1e8wzKBbjeRUcbo-24" value="" style="endArrow=classic;html=1;rounded=0;" parent="b8LFJ1e8wzKBbjeRUcbo-1" edge="1">
          <mxGeometry width="50" height="50" relative="1" as="geometry">
            <mxPoint x="353.71" y="165" as="sourcePoint" />
            <mxPoint x="354.21" y="195" as="targetPoint" />
          </mxGeometry>
        </mxCell>
        <mxCell id="b8LFJ1e8wzKBbjeRUcbo-25" value="" style="verticalLabelPosition=bottom;verticalAlign=top;html=1;shape=offPageConnector;rounded=0;size=0.5;" parent="b8LFJ1e8wzKBbjeRUcbo-1" vertex="1">
          <mxGeometry x="339" y="195" width="30" height="30" as="geometry" />
        </mxCell>
        <mxCell id="b8LFJ1e8wzKBbjeRUcbo-26" value="" style="endArrow=classic;html=1;rounded=0;" parent="b8LFJ1e8wzKBbjeRUcbo-1" edge="1">
          <mxGeometry width="50" height="50" relative="1" as="geometry">
            <mxPoint x="405.71" y="195" as="sourcePoint" />
            <mxPoint x="406.21" y="225" as="targetPoint" />
          </mxGeometry>
        </mxCell>
        <mxCell id="b8LFJ1e8wzKBbjeRUcbo-27" value="" style="verticalLabelPosition=bottom;verticalAlign=top;html=1;shape=offPageConnector;rounded=0;size=0.5;" parent="b8LFJ1e8wzKBbjeRUcbo-1" vertex="1">
          <mxGeometry x="391" y="165" width="30" height="30" as="geometry" />
        </mxCell>
        <mxCell id="b8LFJ1e8wzKBbjeRUcbo-28" value="หน้าต่อไป" style="text;html=1;align=center;verticalAlign=middle;resizable=0;points=[];autosize=1;strokeColor=none;fillColor=none;fontFamily=Sarabun;fontSource=https://fonts.googleapis.com/css?family=Sarabun;" parent="b8LFJ1e8wzKBbjeRUcbo-1" vertex="1">
          <mxGeometry x="345" y="220" width="70" height="30" as="geometry" />
        </mxCell>
        <mxCell id="b8LFJ1e8wzKBbjeRUcbo-29" value="ก" style="text;html=1;align=center;verticalAlign=middle;resizable=0;points=[];autosize=1;strokeColor=none;fillColor=none;fontFamily=Sarabun;fontSource=https://fonts.googleapis.com/css?family=Sarabun;" parent="b8LFJ1e8wzKBbjeRUcbo-1" vertex="1">
          <mxGeometry x="339" y="190" width="30" height="30" as="geometry" />
        </mxCell>
        <mxCell id="b8LFJ1e8wzKBbjeRUcbo-30" value="ก" style="text;html=1;align=center;verticalAlign=middle;resizable=0;points=[];autosize=1;strokeColor=none;fillColor=none;fontFamily=Sarabun;fontSource=https://fonts.googleapis.com/css?family=Sarabun;" parent="b8LFJ1e8wzKBbjeRUcbo-1" vertex="1">
          <mxGeometry x="391" y="160" width="30" height="30" as="geometry" />
        </mxCell>
        <mxCell id="b8LFJ1e8wzKBbjeRUcbo-31" value="แสดงผล/รับค่า" style="shape=parallelogram;perimeter=parallelogramPerimeter;whiteSpace=wrap;html=1;fixedSize=1;fontFamily=Sarabun;fontSource=https://fonts.googleapis.com/css?family=Sarabun;" parent="b8LFJ1e8wzKBbjeRUcbo-1" vertex="1">
          <mxGeometry x="450" y="210" width="120" height="30" as="geometry" />
        </mxCell>
        <mxCell id="b8LFJ1e8wzKBbjeRUcbo-32" value="" style="endArrow=classic;html=1;rounded=0;" parent="b8LFJ1e8wzKBbjeRUcbo-1" edge="1">
          <mxGeometry width="50" height="50" relative="1" as="geometry">
            <mxPoint x="509.71" y="180" as="sourcePoint" />
            <mxPoint x="510.21" y="210" as="targetPoint" />
          </mxGeometry>
        </mxCell>
        <mxCell id="b8LFJ1e8wzKBbjeRUcbo-33" value="" style="endArrow=classic;html=1;rounded=0;" parent="b8LFJ1e8wzKBbjeRUcbo-1" edge="1">
          <mxGeometry width="50" height="50" relative="1" as="geometry">
            <mxPoint x="509.71" y="240" as="sourcePoint" />
            <mxPoint x="510.21" y="270" as="targetPoint" />
          </mxGeometry>
        </mxCell>
        <mxCell id="b8LFJ1e8wzKBbjeRUcbo-37" value="2" style="swimlane;whiteSpace=wrap;html=1;" parent="1" vertex="1">
          <mxGeometry x="-480" y="390" width="1060" height="2780" as="geometry" />
        </mxCell>
        <mxCell id="b8LFJ1e8wzKBbjeRUcbo-38" value="&lt;font data-font-src=&quot;https://fonts.googleapis.com/css?family=Sarabun&quot; face=&quot;Sarabun&quot; style=&quot;font-size: 14px;&quot;&gt;จงเขียน Flowchart เพื่อแสดงขั้นตอนการทำงาน ของเครื่องขายน้ำอัตโนมัติที่ชื่อว่า &quot;ตะพาบลอย&quot;&lt;br&gt;โดยจะต้องมีสินค้าดังนี้&lt;br&gt;&lt;u&gt;ประเภทน้ำ&lt;span style=&quot;white-space: pre;&quot;&gt;&#x9;&lt;/span&gt;&lt;span style=&quot;white-space: pre;&quot;&gt;&#x9;&lt;/span&gt;&lt;span style=&quot;white-space: pre;&quot;&gt;&#x9;&lt;/span&gt;&lt;span style=&quot;white-space: pre;&quot;&gt;&#x9;&lt;/span&gt;&lt;span style=&quot;white-space: pre;&quot;&gt;&#x9;&lt;/span&gt;&lt;span style=&quot;white-space: pre;&quot;&gt;&#x9;&lt;span style=&quot;white-space: pre;&quot;&gt;&#x9;&lt;/span&gt;ข&lt;/span&gt;นม&lt;/u&gt;&lt;br&gt;&lt;span style=&quot;white-space: pre;&quot;&gt;&#x9;&lt;/span&gt;- โค้ก กระป๋องละ 10 บาท&lt;span style=&quot;white-space: pre;&quot;&gt;&#x9;&lt;/span&gt;&lt;span style=&quot;white-space: pre;&quot;&gt;&#x9;&lt;/span&gt;&lt;span style=&quot;white-space: pre;&quot;&gt;&#x9;&lt;/span&gt;&lt;span style=&quot;white-space: pre;&quot;&gt;&#x9;&lt;/span&gt;- เมล็ดทานตะวัน 13 บาท&lt;br&gt;&lt;span style=&quot;white-space: pre;&quot;&gt;&#x9;&lt;/span&gt;- น้ำเขียว กระป๋องละ 12 บาท&lt;span style=&quot;white-space: pre;&quot;&gt;&#x9;&lt;/span&gt;&lt;span style=&quot;white-space: pre;&quot;&gt;&#x9;&lt;/span&gt;&lt;span style=&quot;white-space: pre;&quot;&gt;&#x9;&lt;/span&gt;- ถั่วแปบ 20 บาท&lt;br&gt;&lt;span style=&quot;white-space: pre;&quot;&gt;&#x9;&lt;/span&gt;- อเมริกาโน่ 30 บาท&lt;span style=&quot;white-space: pre;&quot;&gt;&#x9;&lt;/span&gt;&lt;span style=&quot;white-space: pre;&quot;&gt;&#x9;&lt;/span&gt;&lt;span style=&quot;white-space: pre;&quot;&gt;&#x9;&lt;/span&gt;&lt;span style=&quot;white-space: pre;&quot;&gt;&#x9;&lt;/span&gt;&lt;span style=&quot;white-space: pre;&quot;&gt;&#x9;&lt;/span&gt;- จิ้นส้มหมก 15 บาท&lt;br&gt;&lt;span style=&quot;white-space: pre;&quot;&gt;&#x9;&lt;/span&gt;- ลาเต้ หวานเจี๊ยบ 35 บาท&lt;span style=&quot;white-space: pre;&quot;&gt;&#x9;&lt;/span&gt;&lt;br&gt;&lt;br&gt;&lt;u&gt;สิ่งที่ระบบควรจะทำได้&lt;/u&gt;&lt;br&gt;&lt;span style=&quot;white-space: pre;&quot;&gt;&#x9;&lt;/span&gt;- ลูกค้าเลือกสินค้า, ระบบจะต้องรวมยอดขาย และรวมรายการสินค้าทั้งหมดที่ลูกค้าเลือก&lt;br&gt;&lt;span style=&quot;white-space: pre;&quot;&gt;&#x9;&lt;/span&gt;- สรุปยอดว่าเหลือเงินในตู้อีกเท่าไหร่ เหลือเหรียญอะไรบ้าง? ธนบัตรอะไรบ้าง? อย่างละเท่าไหร่?&lt;br&gt;&lt;br&gt;&lt;br&gt;&lt;/font&gt;" style="text;html=1;align=left;verticalAlign=middle;resizable=0;points=[];autosize=1;strokeColor=none;fillColor=none;fontSize=14;" parent="b8LFJ1e8wzKBbjeRUcbo-37" vertex="1">
          <mxGeometry x="25" y="30" width="580" height="240" as="geometry" />
        </mxCell>
        <mxCell id="b8LFJ1e8wzKBbjeRUcbo-34" value="แก้ไขโจทย์ปัญหา" style="swimlane;fontFamily=Sarabun;fontSource=https://fonts.googleapis.com/css?family=Sarabun;" parent="b8LFJ1e8wzKBbjeRUcbo-37" vertex="1">
          <mxGeometry x="10" y="240" width="1050" height="2540" as="geometry" />
        </mxCell>
        <mxCell id="b8LFJ1e8wzKBbjeRUcbo-106" value="เริ่มต้น" style="ellipse;whiteSpace=wrap;html=1;" parent="b8LFJ1e8wzKBbjeRUcbo-34" vertex="1">
          <mxGeometry x="495" y="70" width="120" height="40" as="geometry" />
        </mxCell>
        <mxCell id="-nBqssmfjM8b4evTU4LF-463" value="" style="edgeStyle=orthogonalEdgeStyle;rounded=0;orthogonalLoop=1;jettySize=auto;html=1;entryX=0.5;entryY=0;entryDx=0;entryDy=0;" edge="1" parent="b8LFJ1e8wzKBbjeRUcbo-34" source="b8LFJ1e8wzKBbjeRUcbo-107">
          <mxGeometry relative="1" as="geometry">
            <mxPoint x="555" y="450" as="targetPoint" />
          </mxGeometry>
        </mxCell>
        <mxCell id="b8LFJ1e8wzKBbjeRUcbo-107" value="แสดงเมนูสินค้า (พร้อมจำนวนที่เหลือ)" style="shape=parallelogram;whiteSpace=wrap;html=1;" parent="b8LFJ1e8wzKBbjeRUcbo-34" vertex="1">
          <mxGeometry x="455" y="340" width="200" height="50" as="geometry" />
        </mxCell>
        <mxCell id="-nBqssmfjM8b4evTU4LF-459" value="" style="edgeStyle=orthogonalEdgeStyle;rounded=0;orthogonalLoop=1;jettySize=auto;html=1;" edge="1" parent="b8LFJ1e8wzKBbjeRUcbo-34" target="-nBqssmfjM8b4evTU4LF-458">
          <mxGeometry relative="1" as="geometry">
            <mxPoint x="555" y="490" as="sourcePoint" />
          </mxGeometry>
        </mxCell>
        <mxCell id="b8LFJ1e8wzKBbjeRUcbo-137" value="" style="edgeStyle=orthogonalEdgeStyle;rounded=0;orthogonalLoop=1;jettySize=auto;html=1;exitX=0.5;exitY=1;exitDx=0;exitDy=0;entryX=0.5;entryY=0;entryDx=0;entryDy=0;" parent="b8LFJ1e8wzKBbjeRUcbo-34" source="b8LFJ1e8wzKBbjeRUcbo-109" target="b8LFJ1e8wzKBbjeRUcbo-136" edge="1">
          <mxGeometry relative="1" as="geometry">
            <Array as="points">
              <mxPoint x="555" y="683" />
              <mxPoint x="555" y="683" />
            </Array>
          </mxGeometry>
        </mxCell>
        <mxCell id="b8LFJ1e8wzKBbjeRUcbo-138" value="&lt;b&gt;True&lt;/b&gt;" style="edgeLabel;html=1;align=center;verticalAlign=middle;resizable=0;points=[];" parent="b8LFJ1e8wzKBbjeRUcbo-137" vertex="1" connectable="0">
          <mxGeometry x="-0.4733" y="4" relative="1" as="geometry">
            <mxPoint as="offset" />
          </mxGeometry>
        </mxCell>
        <mxCell id="b8LFJ1e8wzKBbjeRUcbo-109" value="ตรวจสอบว่าสินค้า&amp;nbsp;&lt;div&gt;“ยังเหลือ” หรือไม่&lt;/div&gt;" style="rhombus;whiteSpace=wrap;html=1;" parent="b8LFJ1e8wzKBbjeRUcbo-34" vertex="1">
          <mxGeometry x="485" y="603" width="140" height="70" as="geometry" />
        </mxCell>
        <mxCell id="b8LFJ1e8wzKBbjeRUcbo-119" style="endArrow=block;" parent="b8LFJ1e8wzKBbjeRUcbo-34" source="b8LFJ1e8wzKBbjeRUcbo-106" edge="1">
          <mxGeometry relative="1" as="geometry">
            <mxPoint x="555" y="180" as="targetPoint" />
          </mxGeometry>
        </mxCell>
        <mxCell id="b8LFJ1e8wzKBbjeRUcbo-122" style="endArrow=block;exitX=0;exitY=0.5;exitDx=0;exitDy=0;rounded=0;curved=0;" parent="b8LFJ1e8wzKBbjeRUcbo-34" source="b8LFJ1e8wzKBbjeRUcbo-109" edge="1">
          <mxGeometry relative="1" as="geometry">
            <mxPoint x="335" y="673" as="targetPoint" />
            <Array as="points">
              <mxPoint x="335" y="638" />
            </Array>
          </mxGeometry>
        </mxCell>
        <mxCell id="b8LFJ1e8wzKBbjeRUcbo-135" value="&lt;b&gt;Fales&lt;/b&gt;" style="edgeLabel;html=1;align=center;verticalAlign=middle;resizable=0;points=[];" parent="b8LFJ1e8wzKBbjeRUcbo-122" vertex="1" connectable="0">
          <mxGeometry x="-0.1833" y="2" relative="1" as="geometry">
            <mxPoint as="offset" />
          </mxGeometry>
        </mxCell>
        <mxCell id="b8LFJ1e8wzKBbjeRUcbo-144" value="" style="edgeStyle=orthogonalEdgeStyle;rounded=0;orthogonalLoop=1;jettySize=auto;html=1;" parent="b8LFJ1e8wzKBbjeRUcbo-34" source="b8LFJ1e8wzKBbjeRUcbo-136" edge="1">
          <mxGeometry relative="1" as="geometry">
            <mxPoint x="555" y="823" as="targetPoint" />
          </mxGeometry>
        </mxCell>
        <mxCell id="b8LFJ1e8wzKBbjeRUcbo-136" value="เพิ่มรายการเข้าในตะกร้า" style="rectangle;whiteSpace=wrap;html=1;" parent="b8LFJ1e8wzKBbjeRUcbo-34" vertex="1">
          <mxGeometry x="475" y="723" width="160" height="40" as="geometry" />
        </mxCell>
        <mxCell id="b8LFJ1e8wzKBbjeRUcbo-150" value="" style="edgeStyle=orthogonalEdgeStyle;rounded=0;orthogonalLoop=1;jettySize=auto;html=1;entryX=1;entryY=0.5;entryDx=0;entryDy=0;exitX=1;exitY=0.5;exitDx=0;exitDy=0;" parent="b8LFJ1e8wzKBbjeRUcbo-34" source="b8LFJ1e8wzKBbjeRUcbo-145" target="b8LFJ1e8wzKBbjeRUcbo-151" edge="1">
          <mxGeometry relative="1" as="geometry">
            <mxPoint x="735" y="858" as="targetPoint" />
          </mxGeometry>
        </mxCell>
        <mxCell id="b8LFJ1e8wzKBbjeRUcbo-152" value="&lt;b&gt;Fales&lt;/b&gt;" style="edgeLabel;html=1;align=center;verticalAlign=middle;resizable=0;points=[];" parent="b8LFJ1e8wzKBbjeRUcbo-150" vertex="1" connectable="0">
          <mxGeometry x="0.0157" y="1" relative="1" as="geometry">
            <mxPoint as="offset" />
          </mxGeometry>
        </mxCell>
        <mxCell id="-nBqssmfjM8b4evTU4LF-159" value="" style="edgeStyle=orthogonalEdgeStyle;rounded=0;orthogonalLoop=1;jettySize=auto;html=1;entryX=0.5;entryY=0;entryDx=0;entryDy=0;" edge="1" parent="b8LFJ1e8wzKBbjeRUcbo-34" source="b8LFJ1e8wzKBbjeRUcbo-145">
          <mxGeometry relative="1" as="geometry">
            <mxPoint x="318.75" y="894.5" as="targetPoint" />
          </mxGeometry>
        </mxCell>
        <mxCell id="-nBqssmfjM8b4evTU4LF-160" value="&lt;b&gt;True&lt;/b&gt;" style="edgeLabel;html=1;align=center;verticalAlign=middle;resizable=0;points=[];" vertex="1" connectable="0" parent="-nBqssmfjM8b4evTU4LF-159">
          <mxGeometry x="-0.1931" y="1" relative="1" as="geometry">
            <mxPoint as="offset" />
          </mxGeometry>
        </mxCell>
        <mxCell id="b8LFJ1e8wzKBbjeRUcbo-145" value="ถามว่าจะเลือกเพิ่มหรือไม่" style="rhombus;whiteSpace=wrap;html=1;" parent="b8LFJ1e8wzKBbjeRUcbo-34" vertex="1">
          <mxGeometry x="485" y="823" width="140" height="70" as="geometry" />
        </mxCell>
        <mxCell id="b8LFJ1e8wzKBbjeRUcbo-154" value="" style="edgeStyle=orthogonalEdgeStyle;rounded=0;orthogonalLoop=1;jettySize=auto;html=1;" parent="b8LFJ1e8wzKBbjeRUcbo-34" source="b8LFJ1e8wzKBbjeRUcbo-151" edge="1">
          <mxGeometry relative="1" as="geometry">
            <mxPoint x="555" y="1033" as="targetPoint" />
          </mxGeometry>
        </mxCell>
        <mxCell id="b8LFJ1e8wzKBbjeRUcbo-151" value="รวมยอดขายและแสดงรายการสินค้า" style="rectangle;whiteSpace=wrap;html=1;" parent="b8LFJ1e8wzKBbjeRUcbo-34" vertex="1">
          <mxGeometry x="475" y="933" width="160" height="40" as="geometry" />
        </mxCell>
        <mxCell id="b8LFJ1e8wzKBbjeRUcbo-158" value="" style="edgeStyle=orthogonalEdgeStyle;rounded=0;orthogonalLoop=1;jettySize=auto;html=1;" parent="b8LFJ1e8wzKBbjeRUcbo-34" source="b8LFJ1e8wzKBbjeRUcbo-156" edge="1">
          <mxGeometry relative="1" as="geometry">
            <mxPoint x="555" y="1143" as="targetPoint" />
          </mxGeometry>
        </mxCell>
        <mxCell id="b8LFJ1e8wzKBbjeRUcbo-156" value="รับเงินจากลูกค้า" style="rectangle;whiteSpace=wrap;html=1;" parent="b8LFJ1e8wzKBbjeRUcbo-34" vertex="1">
          <mxGeometry x="475" y="1033" width="160" height="40" as="geometry" />
        </mxCell>
        <mxCell id="b8LFJ1e8wzKBbjeRUcbo-170" value="" style="edgeStyle=orthogonalEdgeStyle;rounded=0;orthogonalLoop=1;jettySize=auto;html=1;" parent="b8LFJ1e8wzKBbjeRUcbo-34" source="b8LFJ1e8wzKBbjeRUcbo-159" edge="1">
          <mxGeometry relative="1" as="geometry">
            <mxPoint x="555" y="1313" as="targetPoint" />
            <Array as="points">
              <mxPoint x="555" y="1268" />
              <mxPoint x="556" y="1268" />
              <mxPoint x="556" y="1313" />
            </Array>
          </mxGeometry>
        </mxCell>
        <mxCell id="b8LFJ1e8wzKBbjeRUcbo-171" value="&lt;b&gt;Ture&lt;/b&gt;" style="edgeLabel;html=1;align=center;verticalAlign=middle;resizable=0;points=[];" parent="b8LFJ1e8wzKBbjeRUcbo-170" vertex="1" connectable="0">
          <mxGeometry x="-0.3656" y="-2" relative="1" as="geometry">
            <mxPoint as="offset" />
          </mxGeometry>
        </mxCell>
        <mxCell id="b8LFJ1e8wzKBbjeRUcbo-159" value="ตรวจสอบว่าเงินเพียงพอไหม" style="rhombus;whiteSpace=wrap;html=1;" parent="b8LFJ1e8wzKBbjeRUcbo-34" vertex="1">
          <mxGeometry x="480" y="1143" width="150" height="80" as="geometry" />
        </mxCell>
        <mxCell id="b8LFJ1e8wzKBbjeRUcbo-164" style="endArrow=block;exitX=0;exitY=0.5;exitDx=0;exitDy=0;rounded=0;curved=0;" parent="b8LFJ1e8wzKBbjeRUcbo-34" edge="1">
          <mxGeometry relative="1" as="geometry">
            <mxPoint x="330" y="1218" as="targetPoint" />
            <mxPoint x="480" y="1183" as="sourcePoint" />
            <Array as="points">
              <mxPoint x="330" y="1183" />
            </Array>
          </mxGeometry>
        </mxCell>
        <mxCell id="b8LFJ1e8wzKBbjeRUcbo-165" value="&lt;b&gt;Fales&lt;/b&gt;" style="edgeLabel;html=1;align=center;verticalAlign=middle;resizable=0;points=[];" parent="b8LFJ1e8wzKBbjeRUcbo-164" vertex="1" connectable="0">
          <mxGeometry x="-0.1833" y="2" relative="1" as="geometry">
            <mxPoint as="offset" />
          </mxGeometry>
        </mxCell>
        <mxCell id="b8LFJ1e8wzKBbjeRUcbo-174" value="" style="edgeStyle=orthogonalEdgeStyle;rounded=0;orthogonalLoop=1;jettySize=auto;html=1;" parent="b8LFJ1e8wzKBbjeRUcbo-34" edge="1">
          <mxGeometry relative="1" as="geometry">
            <mxPoint x="555" y="1413" as="targetPoint" />
            <mxPoint x="555" y="1353" as="sourcePoint" />
          </mxGeometry>
        </mxCell>
        <mxCell id="b8LFJ1e8wzKBbjeRUcbo-182" value="" style="edgeStyle=orthogonalEdgeStyle;rounded=0;orthogonalLoop=1;jettySize=auto;html=1;" parent="b8LFJ1e8wzKBbjeRUcbo-34" source="b8LFJ1e8wzKBbjeRUcbo-175" edge="1">
          <mxGeometry relative="1" as="geometry">
            <mxPoint x="555" y="1583" as="targetPoint" />
          </mxGeometry>
        </mxCell>
        <mxCell id="b8LFJ1e8wzKBbjeRUcbo-184" value="&lt;b&gt;Ture&lt;/b&gt;" style="edgeLabel;html=1;align=center;verticalAlign=middle;resizable=0;points=[];" parent="b8LFJ1e8wzKBbjeRUcbo-182" vertex="1" connectable="0">
          <mxGeometry x="-0.2028" y="-1" relative="1" as="geometry">
            <mxPoint as="offset" />
          </mxGeometry>
        </mxCell>
        <mxCell id="b8LFJ1e8wzKBbjeRUcbo-175" value="ตรวจสอบว่าเครื่องมี&lt;div&gt;ธนบัตรเพียงพอหรือไม่&lt;/div&gt;" style="rhombus;whiteSpace=wrap;html=1;" parent="b8LFJ1e8wzKBbjeRUcbo-34" vertex="1">
          <mxGeometry x="480" y="1413" width="150" height="80" as="geometry" />
        </mxCell>
        <mxCell id="b8LFJ1e8wzKBbjeRUcbo-176" style="endArrow=block;exitX=0;exitY=0.5;exitDx=0;exitDy=0;rounded=0;curved=0;entryX=0.5;entryY=0;entryDx=0;entryDy=0;" parent="b8LFJ1e8wzKBbjeRUcbo-34" target="-nBqssmfjM8b4evTU4LF-175" edge="1">
          <mxGeometry relative="1" as="geometry">
            <mxPoint x="330" y="1488" as="targetPoint" />
            <mxPoint x="480" y="1453" as="sourcePoint" />
            <Array as="points">
              <mxPoint x="330" y="1453" />
            </Array>
          </mxGeometry>
        </mxCell>
        <mxCell id="b8LFJ1e8wzKBbjeRUcbo-177" value="&lt;b&gt;Fales&lt;/b&gt;" style="edgeLabel;html=1;align=center;verticalAlign=middle;resizable=0;points=[];" parent="b8LFJ1e8wzKBbjeRUcbo-176" vertex="1" connectable="0">
          <mxGeometry x="-0.1833" y="2" relative="1" as="geometry">
            <mxPoint as="offset" />
          </mxGeometry>
        </mxCell>
        <mxCell id="b8LFJ1e8wzKBbjeRUcbo-188" value="" style="edgeStyle=orthogonalEdgeStyle;rounded=0;orthogonalLoop=1;jettySize=auto;html=1;" parent="b8LFJ1e8wzKBbjeRUcbo-34" source="b8LFJ1e8wzKBbjeRUcbo-183" target="b8LFJ1e8wzKBbjeRUcbo-187" edge="1">
          <mxGeometry relative="1" as="geometry" />
        </mxCell>
        <mxCell id="b8LFJ1e8wzKBbjeRUcbo-183" value="หักยอดสินค้า (ลดจำนวนในสต๊อก)" style="rectangle;whiteSpace=wrap;html=1;" parent="b8LFJ1e8wzKBbjeRUcbo-34" vertex="1">
          <mxGeometry x="470" y="1583" width="160" height="40" as="geometry" />
        </mxCell>
        <mxCell id="b8LFJ1e8wzKBbjeRUcbo-190" value="" style="edgeStyle=orthogonalEdgeStyle;rounded=0;orthogonalLoop=1;jettySize=auto;html=1;" parent="b8LFJ1e8wzKBbjeRUcbo-34" source="b8LFJ1e8wzKBbjeRUcbo-187" target="b8LFJ1e8wzKBbjeRUcbo-189" edge="1">
          <mxGeometry relative="1" as="geometry" />
        </mxCell>
        <mxCell id="b8LFJ1e8wzKBbjeRUcbo-187" value="หักเหรียญ/ธนบัตรที่ทอนไป" style="rectangle;whiteSpace=wrap;html=1;" parent="b8LFJ1e8wzKBbjeRUcbo-34" vertex="1">
          <mxGeometry x="470" y="1703" width="160" height="40" as="geometry" />
        </mxCell>
        <mxCell id="b8LFJ1e8wzKBbjeRUcbo-193" value="" style="edgeStyle=orthogonalEdgeStyle;rounded=0;orthogonalLoop=1;jettySize=auto;html=1;" parent="b8LFJ1e8wzKBbjeRUcbo-34" source="b8LFJ1e8wzKBbjeRUcbo-189" edge="1">
          <mxGeometry relative="1" as="geometry">
            <mxPoint x="550" y="1943" as="targetPoint" />
          </mxGeometry>
        </mxCell>
        <mxCell id="b8LFJ1e8wzKBbjeRUcbo-189" value="เพิ่มเงินที่ลูกค้าใส่เข้าในเครื่อง" style="rectangle;whiteSpace=wrap;html=1;" parent="b8LFJ1e8wzKBbjeRUcbo-34" vertex="1">
          <mxGeometry x="470" y="1823" width="160" height="40" as="geometry" />
        </mxCell>
        <mxCell id="b8LFJ1e8wzKBbjeRUcbo-242" value="แสดงผลลัพธ์:&amp;nbsp;รายการสินค้า&amp;nbsp;ยอดรวม&amp;nbsp;" style="shape=parallelogram;whiteSpace=wrap;html=1;" parent="b8LFJ1e8wzKBbjeRUcbo-34" vertex="1">
          <mxGeometry x="412.5" y="1943" width="275" height="80" as="geometry" />
        </mxCell>
        <mxCell id="b8LFJ1e8wzKBbjeRUcbo-245" value="จบ" style="ellipse;whiteSpace=wrap;html=1;" parent="b8LFJ1e8wzKBbjeRUcbo-34" vertex="1">
          <mxGeometry x="487.5" y="2350" width="120" height="40" as="geometry" />
        </mxCell>
        <mxCell id="-nBqssmfjM8b4evTU4LF-165" value="" style="edgeStyle=orthogonalEdgeStyle;rounded=0;orthogonalLoop=1;jettySize=auto;html=1;exitX=0.113;exitY=0.428;exitDx=0;exitDy=0;exitPerimeter=0;" edge="1" parent="b8LFJ1e8wzKBbjeRUcbo-34" source="-nBqssmfjM8b4evTU4LF-168" target="-nBqssmfjM8b4evTU4LF-164">
          <mxGeometry relative="1" as="geometry">
            <mxPoint x="217.5" y="913.5" as="sourcePoint" />
            <Array as="points">
              <mxPoint x="140" y="914" />
              <mxPoint x="140" y="914" />
            </Array>
          </mxGeometry>
        </mxCell>
        <mxCell id="-nBqssmfjM8b4evTU4LF-164" value="" style="ellipse;whiteSpace=wrap;html=1;" vertex="1" parent="b8LFJ1e8wzKBbjeRUcbo-34">
          <mxGeometry x="80" y="898.25" width="39.5" height="39.5" as="geometry" />
        </mxCell>
        <mxCell id="-nBqssmfjM8b4evTU4LF-168" value="แสดงข้อความ “กลับไปหน้าเลือกสินค้า”" style="shape=parallelogram;whiteSpace=wrap;html=1;" vertex="1" parent="b8LFJ1e8wzKBbjeRUcbo-34">
          <mxGeometry x="200" y="893" width="240" height="50" as="geometry" />
        </mxCell>
        <mxCell id="-nBqssmfjM8b4evTU4LF-170" value="" style="edgeStyle=orthogonalEdgeStyle;rounded=0;orthogonalLoop=1;jettySize=auto;html=1;" edge="1" target="-nBqssmfjM8b4evTU4LF-171" parent="b8LFJ1e8wzKBbjeRUcbo-34">
          <mxGeometry relative="1" as="geometry">
            <mxPoint x="255" y="693.5" as="sourcePoint" />
          </mxGeometry>
        </mxCell>
        <mxCell id="-nBqssmfjM8b4evTU4LF-465" value="" style="edgeStyle=orthogonalEdgeStyle;rounded=0;orthogonalLoop=1;jettySize=auto;html=1;entryX=0;entryY=0.5;entryDx=0;entryDy=0;exitX=0.5;exitY=0;exitDx=0;exitDy=0;" edge="1" parent="b8LFJ1e8wzKBbjeRUcbo-34" source="-nBqssmfjM8b4evTU4LF-171" target="-nBqssmfjM8b4evTU4LF-460">
          <mxGeometry relative="1" as="geometry">
            <mxPoint x="99.75" y="594.0000000000005" as="targetPoint" />
          </mxGeometry>
        </mxCell>
        <mxCell id="-nBqssmfjM8b4evTU4LF-171" value="" style="ellipse;whiteSpace=wrap;html=1;" vertex="1" parent="b8LFJ1e8wzKBbjeRUcbo-34">
          <mxGeometry x="80" y="674" width="39.5" height="39.5" as="geometry" />
        </mxCell>
        <mxCell id="-nBqssmfjM8b4evTU4LF-172" value="แสดงข้อความ “สินค้าหมด”" style="shape=parallelogram;whiteSpace=wrap;html=1;" vertex="1" parent="b8LFJ1e8wzKBbjeRUcbo-34">
          <mxGeometry x="240" y="673.5" width="170" height="40" as="geometry" />
        </mxCell>
        <mxCell id="-nBqssmfjM8b4evTU4LF-173" value="แสดงว่า &quot;แจ้ง &amp;amp; ยกเลิก&quot;" style="shape=parallelogram;whiteSpace=wrap;html=1;" vertex="1" parent="b8LFJ1e8wzKBbjeRUcbo-34">
          <mxGeometry x="245" y="1213" width="170" height="50" as="geometry" />
        </mxCell>
        <mxCell id="-nBqssmfjM8b4evTU4LF-455" value="" style="edgeStyle=orthogonalEdgeStyle;rounded=0;orthogonalLoop=1;jettySize=auto;html=1;" edge="1" parent="b8LFJ1e8wzKBbjeRUcbo-34" source="-nBqssmfjM8b4evTU4LF-175" target="-nBqssmfjM8b4evTU4LF-454">
          <mxGeometry relative="1" as="geometry" />
        </mxCell>
        <mxCell id="-nBqssmfjM8b4evTU4LF-175" value="แสดงว่า &quot;แจ้ง &amp;amp;เงินทอนไม่เพียงพอ&quot;" style="shape=parallelogram;whiteSpace=wrap;html=1;" vertex="1" parent="b8LFJ1e8wzKBbjeRUcbo-34">
          <mxGeometry x="212.5" y="1493" width="235" height="50" as="geometry" />
        </mxCell>
        <mxCell id="-nBqssmfjM8b4evTU4LF-176" value="" style="edgeStyle=orthogonalEdgeStyle;rounded=0;orthogonalLoop=1;jettySize=auto;html=1;" edge="1" parent="b8LFJ1e8wzKBbjeRUcbo-34" target="-nBqssmfjM8b4evTU4LF-177">
          <mxGeometry relative="1" as="geometry">
            <mxPoint x="257.5" y="1238.25" as="sourcePoint" />
          </mxGeometry>
        </mxCell>
        <mxCell id="-nBqssmfjM8b4evTU4LF-177" value="" style="ellipse;whiteSpace=wrap;html=1;" vertex="1" parent="b8LFJ1e8wzKBbjeRUcbo-34">
          <mxGeometry x="80" y="1218.25" width="39.5" height="39.5" as="geometry" />
        </mxCell>
        <mxCell id="-nBqssmfjM8b4evTU4LF-181" value="" style="edgeStyle=orthogonalEdgeStyle;rounded=0;orthogonalLoop=1;jettySize=auto;html=1;entryX=0.5;entryY=1;entryDx=0;entryDy=0;" edge="1" parent="b8LFJ1e8wzKBbjeRUcbo-34" source="-nBqssmfjM8b4evTU4LF-179" target="-nBqssmfjM8b4evTU4LF-177">
          <mxGeometry relative="1" as="geometry">
            <mxPoint x="109.74999999999977" y="1418.2499999999995" as="targetPoint" />
          </mxGeometry>
        </mxCell>
        <mxCell id="-nBqssmfjM8b4evTU4LF-179" value="" style="ellipse;whiteSpace=wrap;html=1;" vertex="1" parent="b8LFJ1e8wzKBbjeRUcbo-34">
          <mxGeometry x="80" y="1593" width="39.5" height="39.5" as="geometry" />
        </mxCell>
        <mxCell id="-nBqssmfjM8b4evTU4LF-182" value="" style="edgeStyle=orthogonalEdgeStyle;rounded=0;orthogonalLoop=1;jettySize=auto;html=1;entryX=0.5;entryY=1;entryDx=0;entryDy=0;" edge="1" parent="b8LFJ1e8wzKBbjeRUcbo-34" target="-nBqssmfjM8b4evTU4LF-164">
          <mxGeometry relative="1" as="geometry">
            <mxPoint x="99.16" y="1218.25" as="sourcePoint" />
            <mxPoint x="99.16" y="978.25" as="targetPoint" />
          </mxGeometry>
        </mxCell>
        <mxCell id="-nBqssmfjM8b4evTU4LF-183" value="" style="edgeStyle=orthogonalEdgeStyle;rounded=0;orthogonalLoop=1;jettySize=auto;html=1;entryX=0.5;entryY=1;entryDx=0;entryDy=0;exitX=0.5;exitY=0;exitDx=0;exitDy=0;" edge="1" parent="b8LFJ1e8wzKBbjeRUcbo-34" source="-nBqssmfjM8b4evTU4LF-164" target="-nBqssmfjM8b4evTU4LF-171">
          <mxGeometry relative="1" as="geometry">
            <mxPoint x="89.07" y="993.75" as="sourcePoint" />
            <mxPoint x="89.91" y="713.5" as="targetPoint" />
          </mxGeometry>
        </mxCell>
        <mxCell id="-nBqssmfjM8b4evTU4LF-186" style="endArrow=block;exitX=0.5;exitY=1;exitDx=0;exitDy=0;" edge="1" parent="b8LFJ1e8wzKBbjeRUcbo-34" source="-nBqssmfjM8b4evTU4LF-460">
          <mxGeometry relative="1" as="geometry">
            <mxPoint x="554.91" y="410" as="sourcePoint" />
            <mxPoint x="554.91" y="430" as="targetPoint" />
          </mxGeometry>
        </mxCell>
        <mxCell id="-nBqssmfjM8b4evTU4LF-188" value="คำนวณเงินทอน" style="rectangle;whiteSpace=wrap;html=1;" vertex="1" parent="b8LFJ1e8wzKBbjeRUcbo-34">
          <mxGeometry x="467.5" y="1313" width="175" height="40" as="geometry" />
        </mxCell>
        <mxCell id="-nBqssmfjM8b4evTU4LF-190" value="&lt;font face=&quot;Sarabun&quot;&gt;ตรวจสอบสินค้า&lt;/font&gt;" style="shape=process;whiteSpace=wrap;html=1;backgroundOutline=1;" vertex="1" parent="b8LFJ1e8wzKBbjeRUcbo-34">
          <mxGeometry x="467.5" y="180" width="175" height="40" as="geometry" />
        </mxCell>
        <mxCell id="-nBqssmfjM8b4evTU4LF-230" value="" style="endArrow=classic;html=1;rounded=0;" edge="1" parent="b8LFJ1e8wzKBbjeRUcbo-34">
          <mxGeometry width="50" height="50" relative="1" as="geometry">
            <mxPoint x="452.21" y="110" as="sourcePoint" />
            <mxPoint x="452.71" y="140" as="targetPoint" />
          </mxGeometry>
        </mxCell>
        <mxCell id="-nBqssmfjM8b4evTU4LF-231" value="" style="verticalLabelPosition=bottom;verticalAlign=top;html=1;shape=offPageConnector;rounded=0;size=0.5;" vertex="1" parent="b8LFJ1e8wzKBbjeRUcbo-34">
          <mxGeometry x="437.5" y="140" width="30" height="30" as="geometry" />
        </mxCell>
        <mxCell id="-nBqssmfjM8b4evTU4LF-232" value="ก" style="text;html=1;align=center;verticalAlign=middle;resizable=0;points=[];autosize=1;strokeColor=none;fillColor=none;fontFamily=Sarabun;fontSource=https://fonts.googleapis.com/css?family=Sarabun;" vertex="1" parent="b8LFJ1e8wzKBbjeRUcbo-34">
          <mxGeometry x="437.5" y="135" width="30" height="30" as="geometry" />
        </mxCell>
        <mxCell id="-nBqssmfjM8b4evTU4LF-233" style="endArrow=block;" edge="1" parent="b8LFJ1e8wzKBbjeRUcbo-34">
          <mxGeometry relative="1" as="geometry">
            <mxPoint x="554.68" y="220" as="sourcePoint" />
            <mxPoint x="555" y="260" as="targetPoint" />
          </mxGeometry>
        </mxCell>
        <mxCell id="-nBqssmfjM8b4evTU4LF-234" value="&lt;font face=&quot;Sarabun&quot;&gt;ตรวจสอบเงินในตู้&lt;/font&gt;" style="shape=process;whiteSpace=wrap;html=1;backgroundOutline=1;" vertex="1" parent="b8LFJ1e8wzKBbjeRUcbo-34">
          <mxGeometry x="467.5" y="260" width="175" height="40" as="geometry" />
        </mxCell>
        <mxCell id="-nBqssmfjM8b4evTU4LF-238" style="endArrow=block;" edge="1" parent="b8LFJ1e8wzKBbjeRUcbo-34">
          <mxGeometry relative="1" as="geometry">
            <mxPoint x="554.68" y="300" as="sourcePoint" />
            <mxPoint x="555" y="340" as="targetPoint" />
          </mxGeometry>
        </mxCell>
        <mxCell id="-nBqssmfjM8b4evTU4LF-239" value="" style="endArrow=classic;html=1;rounded=0;" edge="1" parent="b8LFJ1e8wzKBbjeRUcbo-34">
          <mxGeometry width="50" height="50" relative="1" as="geometry">
            <mxPoint x="452.21" y="200" as="sourcePoint" />
            <mxPoint x="452.71" y="230" as="targetPoint" />
          </mxGeometry>
        </mxCell>
        <mxCell id="-nBqssmfjM8b4evTU4LF-240" value="" style="verticalLabelPosition=bottom;verticalAlign=top;html=1;shape=offPageConnector;rounded=0;size=0.5;" vertex="1" parent="b8LFJ1e8wzKBbjeRUcbo-34">
          <mxGeometry x="437.5" y="230" width="30" height="30" as="geometry" />
        </mxCell>
        <mxCell id="-nBqssmfjM8b4evTU4LF-241" value="ข" style="text;html=1;align=center;verticalAlign=middle;resizable=0;points=[];autosize=1;strokeColor=none;fillColor=none;fontFamily=Sarabun;fontSource=https://fonts.googleapis.com/css?family=Sarabun;" vertex="1" parent="b8LFJ1e8wzKBbjeRUcbo-34">
          <mxGeometry x="437.5" y="225" width="30" height="30" as="geometry" />
        </mxCell>
        <mxCell id="-nBqssmfjM8b4evTU4LF-242" style="endArrow=block;entryX=0.5;entryY=0;entryDx=0;entryDy=0;" edge="1" parent="b8LFJ1e8wzKBbjeRUcbo-34" target="-nBqssmfjM8b4evTU4LF-499">
          <mxGeometry relative="1" as="geometry">
            <mxPoint x="547.5" y="2023" as="sourcePoint" />
            <mxPoint x="547.5" y="2093" as="targetPoint" />
          </mxGeometry>
        </mxCell>
        <mxCell id="-nBqssmfjM8b4evTU4LF-501" value="" style="edgeStyle=orthogonalEdgeStyle;rounded=0;orthogonalLoop=1;jettySize=auto;html=1;" edge="1" parent="b8LFJ1e8wzKBbjeRUcbo-34" source="-nBqssmfjM8b4evTU4LF-243" target="-nBqssmfjM8b4evTU4LF-248">
          <mxGeometry relative="1" as="geometry" />
        </mxCell>
        <mxCell id="-nBqssmfjM8b4evTU4LF-243" value="&lt;font face=&quot;Sarabun&quot;&gt;ตรวจสอบสินค้า&lt;/font&gt;" style="shape=process;whiteSpace=wrap;html=1;backgroundOutline=1;" vertex="1" parent="b8LFJ1e8wzKBbjeRUcbo-34">
          <mxGeometry x="460" y="2190" width="175" height="40" as="geometry" />
        </mxCell>
        <mxCell id="-nBqssmfjM8b4evTU4LF-244" value="" style="endArrow=classic;html=1;rounded=0;" edge="1" parent="b8LFJ1e8wzKBbjeRUcbo-34">
          <mxGeometry width="50" height="50" relative="1" as="geometry">
            <mxPoint x="444.72" y="2130" as="sourcePoint" />
            <mxPoint x="445.22" y="2160" as="targetPoint" />
          </mxGeometry>
        </mxCell>
        <mxCell id="-nBqssmfjM8b4evTU4LF-245" value="" style="verticalLabelPosition=bottom;verticalAlign=top;html=1;shape=offPageConnector;rounded=0;size=0.5;" vertex="1" parent="b8LFJ1e8wzKBbjeRUcbo-34">
          <mxGeometry x="430" y="2160" width="30" height="30" as="geometry" />
        </mxCell>
        <mxCell id="-nBqssmfjM8b4evTU4LF-246" value="ก" style="text;html=1;align=center;verticalAlign=middle;resizable=0;points=[];autosize=1;strokeColor=none;fillColor=none;fontFamily=Sarabun;fontSource=https://fonts.googleapis.com/css?family=Sarabun;" vertex="1" parent="b8LFJ1e8wzKBbjeRUcbo-34">
          <mxGeometry x="430" y="2155" width="30" height="30" as="geometry" />
        </mxCell>
        <mxCell id="-nBqssmfjM8b4evTU4LF-502" value="" style="edgeStyle=orthogonalEdgeStyle;rounded=0;orthogonalLoop=1;jettySize=auto;html=1;" edge="1" parent="b8LFJ1e8wzKBbjeRUcbo-34" source="-nBqssmfjM8b4evTU4LF-248" target="b8LFJ1e8wzKBbjeRUcbo-245">
          <mxGeometry relative="1" as="geometry" />
        </mxCell>
        <mxCell id="-nBqssmfjM8b4evTU4LF-248" value="&lt;font face=&quot;Sarabun&quot;&gt;ตรวจสอบเงินในตู้&lt;/font&gt;" style="shape=process;whiteSpace=wrap;html=1;backgroundOutline=1;" vertex="1" parent="b8LFJ1e8wzKBbjeRUcbo-34">
          <mxGeometry x="460" y="2265" width="175" height="40" as="geometry" />
        </mxCell>
        <mxCell id="-nBqssmfjM8b4evTU4LF-249" value="" style="endArrow=classic;html=1;rounded=0;" edge="1" parent="b8LFJ1e8wzKBbjeRUcbo-34">
          <mxGeometry width="50" height="50" relative="1" as="geometry">
            <mxPoint x="452.21000000000004" y="2205" as="sourcePoint" />
            <mxPoint x="452.71000000000004" y="2235" as="targetPoint" />
          </mxGeometry>
        </mxCell>
        <mxCell id="-nBqssmfjM8b4evTU4LF-250" value="" style="verticalLabelPosition=bottom;verticalAlign=top;html=1;shape=offPageConnector;rounded=0;size=0.5;" vertex="1" parent="b8LFJ1e8wzKBbjeRUcbo-34">
          <mxGeometry x="437.5" y="2235" width="30" height="30" as="geometry" />
        </mxCell>
        <mxCell id="-nBqssmfjM8b4evTU4LF-251" value="ข" style="text;html=1;align=center;verticalAlign=middle;resizable=0;points=[];autosize=1;strokeColor=none;fillColor=none;fontFamily=Sarabun;fontSource=https://fonts.googleapis.com/css?family=Sarabun;" vertex="1" parent="b8LFJ1e8wzKBbjeRUcbo-34">
          <mxGeometry x="437.5" y="2230" width="30" height="30" as="geometry" />
        </mxCell>
        <mxCell id="-nBqssmfjM8b4evTU4LF-457" value="" style="edgeStyle=orthogonalEdgeStyle;rounded=0;orthogonalLoop=1;jettySize=auto;html=1;entryX=1;entryY=0.5;entryDx=0;entryDy=0;" edge="1" parent="b8LFJ1e8wzKBbjeRUcbo-34" source="-nBqssmfjM8b4evTU4LF-454" target="-nBqssmfjM8b4evTU4LF-179">
          <mxGeometry relative="1" as="geometry">
            <mxPoint x="135" y="1613" as="targetPoint" />
          </mxGeometry>
        </mxCell>
        <mxCell id="-nBqssmfjM8b4evTU4LF-454" value="คืนเงินลูกค้า" style="rectangle;whiteSpace=wrap;html=1;" vertex="1" parent="b8LFJ1e8wzKBbjeRUcbo-34">
          <mxGeometry x="242.5" y="1593" width="175" height="40" as="geometry" />
        </mxCell>
        <mxCell id="-nBqssmfjM8b4evTU4LF-466" value="" style="edgeStyle=orthogonalEdgeStyle;rounded=0;orthogonalLoop=1;jettySize=auto;html=1;" edge="1" parent="b8LFJ1e8wzKBbjeRUcbo-34" source="-nBqssmfjM8b4evTU4LF-458" target="b8LFJ1e8wzKBbjeRUcbo-109">
          <mxGeometry relative="1" as="geometry" />
        </mxCell>
        <mxCell id="-nBqssmfjM8b4evTU4LF-458" value="ลูกค้าเลือกสินค้า" style="rectangle;whiteSpace=wrap;html=1;" vertex="1" parent="b8LFJ1e8wzKBbjeRUcbo-34">
          <mxGeometry x="475" y="520" width="160" height="40" as="geometry" />
        </mxCell>
        <mxCell id="-nBqssmfjM8b4evTU4LF-460" value="" style="ellipse;whiteSpace=wrap;html=1;" vertex="1" parent="b8LFJ1e8wzKBbjeRUcbo-34">
          <mxGeometry x="545" y="410" width="20" height="20" as="geometry" />
        </mxCell>
        <mxCell id="-nBqssmfjM8b4evTU4LF-467" value="รายการสินค้า" style="shape=process;whiteSpace=wrap;html=1;backgroundOutline=1;" vertex="1" parent="b8LFJ1e8wzKBbjeRUcbo-34">
          <mxGeometry x="470" y="450" width="175" height="40" as="geometry" />
        </mxCell>
        <mxCell id="-nBqssmfjM8b4evTU4LF-469" value="" style="endArrow=classic;html=1;rounded=0;" edge="1" parent="b8LFJ1e8wzKBbjeRUcbo-34">
          <mxGeometry width="50" height="50" relative="1" as="geometry">
            <mxPoint x="452.25000000000006" y="425" as="sourcePoint" />
            <mxPoint x="452.75000000000006" y="455" as="targetPoint" />
          </mxGeometry>
        </mxCell>
        <mxCell id="-nBqssmfjM8b4evTU4LF-470" value="" style="verticalLabelPosition=bottom;verticalAlign=top;html=1;shape=offPageConnector;rounded=0;size=0.5;" vertex="1" parent="b8LFJ1e8wzKBbjeRUcbo-34">
          <mxGeometry x="437.5" y="455" width="30" height="30" as="geometry" />
        </mxCell>
        <mxCell id="-nBqssmfjM8b4evTU4LF-471" value="ค" style="text;html=1;align=center;verticalAlign=middle;resizable=0;points=[];autosize=1;strokeColor=none;fillColor=none;fontFamily=Sarabun;fontSource=https://fonts.googleapis.com/css?family=Sarabun;" vertex="1" parent="b8LFJ1e8wzKBbjeRUcbo-34">
          <mxGeometry x="437.5" y="450" width="30" height="30" as="geometry" />
        </mxCell>
        <mxCell id="-nBqssmfjM8b4evTU4LF-500" value="" style="edgeStyle=orthogonalEdgeStyle;rounded=0;orthogonalLoop=1;jettySize=auto;html=1;" edge="1" parent="b8LFJ1e8wzKBbjeRUcbo-34" source="-nBqssmfjM8b4evTU4LF-499" target="-nBqssmfjM8b4evTU4LF-243">
          <mxGeometry relative="1" as="geometry" />
        </mxCell>
        <mxCell id="-nBqssmfjM8b4evTU4LF-499" value="&lt;font face=&quot;Sarabun&quot;&gt;ระบบทอนเงิน&lt;/font&gt;" style="shape=process;whiteSpace=wrap;html=1;backgroundOutline=1;" vertex="1" parent="b8LFJ1e8wzKBbjeRUcbo-34">
          <mxGeometry x="460" y="2090" width="175" height="40" as="geometry" />
        </mxCell>
        <mxCell id="-nBqssmfjM8b4evTU4LF-503" value="" style="endArrow=classic;html=1;rounded=0;" edge="1" parent="b8LFJ1e8wzKBbjeRUcbo-34">
          <mxGeometry width="50" height="50" relative="1" as="geometry">
            <mxPoint x="439.72" y="2050" as="sourcePoint" />
            <mxPoint x="440.22" y="2080" as="targetPoint" />
          </mxGeometry>
        </mxCell>
        <mxCell id="-nBqssmfjM8b4evTU4LF-504" value="" style="verticalLabelPosition=bottom;verticalAlign=top;html=1;shape=offPageConnector;rounded=0;size=0.5;" vertex="1" parent="b8LFJ1e8wzKBbjeRUcbo-34">
          <mxGeometry x="425" y="2080" width="30" height="30" as="geometry" />
        </mxCell>
        <mxCell id="-nBqssmfjM8b4evTU4LF-505" value="ง" style="text;html=1;align=center;verticalAlign=middle;resizable=0;points=[];autosize=1;strokeColor=none;fillColor=none;fontFamily=Sarabun;fontSource=https://fonts.googleapis.com/css?family=Sarabun;" vertex="1" parent="b8LFJ1e8wzKBbjeRUcbo-34">
          <mxGeometry x="425" y="2075" width="30" height="30" as="geometry" />
        </mxCell>
        <mxCell id="-nBqssmfjM8b4evTU4LF-105" value="ั" style="swimlane;fontFamily=Sarabun;fontSource=https://fonts.googleapis.com/css?family=Sarabun;" vertex="1" parent="1">
          <mxGeometry x="770" y="630" width="1560" height="3240" as="geometry" />
        </mxCell>
        <mxCell id="-nBqssmfjM8b4evTU4LF-495" value="" style="edgeStyle=orthogonalEdgeStyle;rounded=0;orthogonalLoop=1;jettySize=auto;html=1;entryX=0.5;entryY=0;entryDx=0;entryDy=0;" edge="1" parent="-nBqssmfjM8b4evTU4LF-105" source="-nBqssmfjM8b4evTU4LF-493" target="-nBqssmfjM8b4evTU4LF-263">
          <mxGeometry relative="1" as="geometry" />
        </mxCell>
        <mxCell id="-nBqssmfjM8b4evTU4LF-121" value="" style="edgeStyle=orthogonalEdgeStyle;rounded=0;orthogonalLoop=1;jettySize=auto;html=1;entryX=0;entryY=0.5;entryDx=0;entryDy=0;exitX=0;exitY=0.5;exitDx=0;exitDy=0;" edge="1" parent="-nBqssmfjM8b4evTU4LF-105" source="-nBqssmfjM8b4evTU4LF-125">
          <mxGeometry relative="1" as="geometry">
            <mxPoint x="280" y="210" as="targetPoint" />
            <Array as="points">
              <mxPoint x="10" y="505" />
              <mxPoint x="10" y="210" />
            </Array>
          </mxGeometry>
        </mxCell>
        <mxCell id="-nBqssmfjM8b4evTU4LF-122" value="&lt;b&gt;True&lt;/b&gt;" style="edgeLabel;html=1;align=center;verticalAlign=middle;resizable=0;points=[];" vertex="1" connectable="0" parent="-nBqssmfjM8b4evTU4LF-121">
          <mxGeometry x="-0.7179" y="2" relative="1" as="geometry">
            <mxPoint as="offset" />
          </mxGeometry>
        </mxCell>
        <mxCell id="-nBqssmfjM8b4evTU4LF-260" value="" style="edgeStyle=orthogonalEdgeStyle;rounded=0;orthogonalLoop=1;jettySize=auto;html=1;" edge="1" parent="-nBqssmfjM8b4evTU4LF-105" source="-nBqssmfjM8b4evTU4LF-253" target="-nBqssmfjM8b4evTU4LF-258">
          <mxGeometry relative="1" as="geometry" />
        </mxCell>
        <mxCell id="-nBqssmfjM8b4evTU4LF-253" value="&lt;font face=&quot;Sarabun&quot;&gt;ตรวจสอบสินค้า&lt;/font&gt;" style="shape=process;whiteSpace=wrap;html=1;backgroundOutline=1;" vertex="1" parent="-nBqssmfjM8b4evTU4LF-105">
          <mxGeometry x="340.5" y="65" width="175" height="40" as="geometry" />
        </mxCell>
        <mxCell id="-nBqssmfjM8b4evTU4LF-254" value="" style="endArrow=classic;html=1;rounded=0;" edge="1" parent="-nBqssmfjM8b4evTU4LF-105">
          <mxGeometry width="50" height="50" relative="1" as="geometry">
            <mxPoint x="314.71000000000004" y="65" as="sourcePoint" />
            <mxPoint x="315.21000000000004" y="95" as="targetPoint" />
          </mxGeometry>
        </mxCell>
        <mxCell id="-nBqssmfjM8b4evTU4LF-255" value="" style="verticalLabelPosition=bottom;verticalAlign=top;html=1;shape=offPageConnector;rounded=0;size=0.5;" vertex="1" parent="-nBqssmfjM8b4evTU4LF-105">
          <mxGeometry x="300" y="35" width="30" height="30" as="geometry" />
        </mxCell>
        <mxCell id="-nBqssmfjM8b4evTU4LF-256" value="ก" style="text;html=1;align=center;verticalAlign=middle;resizable=0;points=[];autosize=1;strokeColor=none;fillColor=none;fontFamily=Sarabun;fontSource=https://fonts.googleapis.com/css?family=Sarabun;" vertex="1" parent="-nBqssmfjM8b4evTU4LF-105">
          <mxGeometry x="300" y="30" width="30" height="30" as="geometry" />
        </mxCell>
        <mxCell id="-nBqssmfjM8b4evTU4LF-494" value="" style="edgeStyle=orthogonalEdgeStyle;rounded=0;orthogonalLoop=1;jettySize=auto;html=1;" edge="1" parent="-nBqssmfjM8b4evTU4LF-105" source="-nBqssmfjM8b4evTU4LF-258" target="-nBqssmfjM8b4evTU4LF-493">
          <mxGeometry relative="1" as="geometry" />
        </mxCell>
        <mxCell id="-nBqssmfjM8b4evTU4LF-258" value="โหลดรายการสินค้า" style="rectangle;whiteSpace=wrap;html=1;" vertex="1" parent="-nBqssmfjM8b4evTU4LF-105">
          <mxGeometry x="347.5" y="130" width="160" height="40" as="geometry" />
        </mxCell>
        <mxCell id="-nBqssmfjM8b4evTU4LF-267" value="" style="edgeStyle=orthogonalEdgeStyle;rounded=0;orthogonalLoop=1;jettySize=auto;html=1;" edge="1" parent="-nBqssmfjM8b4evTU4LF-105" source="-nBqssmfjM8b4evTU4LF-263" target="-nBqssmfjM8b4evTU4LF-266">
          <mxGeometry relative="1" as="geometry" />
        </mxCell>
        <mxCell id="-nBqssmfjM8b4evTU4LF-270" value="&lt;b&gt;Fales&lt;/b&gt;" style="edgeLabel;html=1;align=center;verticalAlign=middle;resizable=0;points=[];" vertex="1" connectable="0" parent="-nBqssmfjM8b4evTU4LF-267">
          <mxGeometry x="-0.113" y="2" relative="1" as="geometry">
            <mxPoint as="offset" />
          </mxGeometry>
        </mxCell>
        <mxCell id="-nBqssmfjM8b4evTU4LF-269" value="" style="edgeStyle=orthogonalEdgeStyle;rounded=0;orthogonalLoop=1;jettySize=auto;html=1;" edge="1" parent="-nBqssmfjM8b4evTU4LF-105" source="-nBqssmfjM8b4evTU4LF-263" target="-nBqssmfjM8b4evTU4LF-268">
          <mxGeometry relative="1" as="geometry" />
        </mxCell>
        <mxCell id="-nBqssmfjM8b4evTU4LF-271" value="&lt;b&gt;True&lt;/b&gt;" style="edgeLabel;html=1;align=center;verticalAlign=middle;resizable=0;points=[];" vertex="1" connectable="0" parent="-nBqssmfjM8b4evTU4LF-269">
          <mxGeometry x="-0.7015" y="-1" relative="1" as="geometry">
            <mxPoint as="offset" />
          </mxGeometry>
        </mxCell>
        <mxCell id="-nBqssmfjM8b4evTU4LF-263" value="มีสินค้าถัดไปหรือไม่" style="rhombus;whiteSpace=wrap;html=1;" vertex="1" parent="-nBqssmfjM8b4evTU4LF-105">
          <mxGeometry x="357.5" y="300" width="140" height="70" as="geometry" />
        </mxCell>
        <mxCell id="-nBqssmfjM8b4evTU4LF-266" value="จบการทำงาน" style="rectangle;whiteSpace=wrap;html=1;" vertex="1" parent="-nBqssmfjM8b4evTU4LF-105">
          <mxGeometry x="140" y="315" width="160" height="40" as="geometry" />
        </mxCell>
        <mxCell id="-nBqssmfjM8b4evTU4LF-273" value="" style="edgeStyle=orthogonalEdgeStyle;rounded=0;orthogonalLoop=1;jettySize=auto;html=1;" edge="1" parent="-nBqssmfjM8b4evTU4LF-105" source="-nBqssmfjM8b4evTU4LF-268" target="-nBqssmfjM8b4evTU4LF-272">
          <mxGeometry relative="1" as="geometry" />
        </mxCell>
        <mxCell id="-nBqssmfjM8b4evTU4LF-268" value="โหลดรายการสินค้า" style="rectangle;whiteSpace=wrap;html=1;" vertex="1" parent="-nBqssmfjM8b4evTU4LF-105">
          <mxGeometry x="347.5" y="400" width="160" height="40" as="geometry" />
        </mxCell>
        <mxCell id="-nBqssmfjM8b4evTU4LF-275" value="" style="edgeStyle=orthogonalEdgeStyle;rounded=0;orthogonalLoop=1;jettySize=auto;html=1;" edge="1" parent="-nBqssmfjM8b4evTU4LF-105" source="-nBqssmfjM8b4evTU4LF-272" target="-nBqssmfjM8b4evTU4LF-274">
          <mxGeometry relative="1" as="geometry" />
        </mxCell>
        <mxCell id="-nBqssmfjM8b4evTU4LF-272" value="&quot;จำนวนคงเหลือ&quot; และ&amp;nbsp;&lt;div&gt;&quot;วันหมดอายุ&quot;&lt;/div&gt;" style="rectangle;whiteSpace=wrap;html=1;" vertex="1" parent="-nBqssmfjM8b4evTU4LF-105">
          <mxGeometry x="347.5" y="480" width="160" height="40" as="geometry" />
        </mxCell>
        <mxCell id="-nBqssmfjM8b4evTU4LF-296" value="" style="edgeStyle=orthogonalEdgeStyle;rounded=0;orthogonalLoop=1;jettySize=auto;html=1;" edge="1" parent="-nBqssmfjM8b4evTU4LF-105" source="-nBqssmfjM8b4evTU4LF-274" target="-nBqssmfjM8b4evTU4LF-291">
          <mxGeometry relative="1" as="geometry" />
        </mxCell>
        <mxCell id="-nBqssmfjM8b4evTU4LF-300" value="&lt;b&gt;True&lt;/b&gt;" style="edgeLabel;html=1;align=center;verticalAlign=middle;resizable=0;points=[];" vertex="1" connectable="0" parent="-nBqssmfjM8b4evTU4LF-296">
          <mxGeometry x="-0.0383" relative="1" as="geometry">
            <mxPoint as="offset" />
          </mxGeometry>
        </mxCell>
        <mxCell id="-nBqssmfjM8b4evTU4LF-274" value="จำนวนสินค้า &amp;gt; 0 หรือไม่" style="rhombus;whiteSpace=wrap;html=1;" vertex="1" parent="-nBqssmfjM8b4evTU4LF-105">
          <mxGeometry x="357.5" y="550" width="140" height="70" as="geometry" />
        </mxCell>
        <mxCell id="-nBqssmfjM8b4evTU4LF-276" value="แสดงข้อความ “สินค้าหมด”" style="shape=parallelogram;whiteSpace=wrap;html=1;" vertex="1" parent="-nBqssmfjM8b4evTU4LF-105">
          <mxGeometry x="130" y="570" width="170" height="40" as="geometry" />
        </mxCell>
        <mxCell id="-nBqssmfjM8b4evTU4LF-277" value="" style="edgeStyle=orthogonalEdgeStyle;rounded=0;orthogonalLoop=1;jettySize=auto;html=1;entryX=0.946;entryY=0.362;entryDx=0;entryDy=0;entryPerimeter=0;" edge="1" parent="-nBqssmfjM8b4evTU4LF-105" target="-nBqssmfjM8b4evTU4LF-276">
          <mxGeometry relative="1" as="geometry">
            <mxPoint x="357.5" y="584.81" as="sourcePoint" />
            <mxPoint x="299.5" y="584.81" as="targetPoint" />
          </mxGeometry>
        </mxCell>
        <mxCell id="-nBqssmfjM8b4evTU4LF-281" value="Fales" style="edgeLabel;html=1;align=center;verticalAlign=middle;resizable=0;points=[];" vertex="1" connectable="0" parent="-nBqssmfjM8b4evTU4LF-277">
          <mxGeometry x="-0.0881" y="-1" relative="1" as="geometry">
            <mxPoint as="offset" />
          </mxGeometry>
        </mxCell>
        <mxCell id="-nBqssmfjM8b4evTU4LF-282" value="" style="edgeStyle=orthogonalEdgeStyle;rounded=0;orthogonalLoop=1;jettySize=auto;html=1;" edge="1" parent="-nBqssmfjM8b4evTU4LF-105" target="-nBqssmfjM8b4evTU4LF-283">
          <mxGeometry relative="1" as="geometry">
            <mxPoint x="150" y="586" as="sourcePoint" />
            <Array as="points">
              <mxPoint x="80" y="586.25" />
              <mxPoint x="80" y="586.25" />
            </Array>
          </mxGeometry>
        </mxCell>
        <mxCell id="-nBqssmfjM8b4evTU4LF-286" value="" style="edgeStyle=orthogonalEdgeStyle;rounded=0;orthogonalLoop=1;jettySize=auto;html=1;entryX=0.5;entryY=1;entryDx=0;entryDy=0;" edge="1" parent="-nBqssmfjM8b4evTU4LF-105" source="-nBqssmfjM8b4evTU4LF-283" target="-nBqssmfjM8b4evTU4LF-284">
          <mxGeometry relative="1" as="geometry">
            <mxPoint x="39.749999999999545" y="490.5" as="targetPoint" />
          </mxGeometry>
        </mxCell>
        <mxCell id="-nBqssmfjM8b4evTU4LF-283" value="" style="ellipse;whiteSpace=wrap;html=1;" vertex="1" parent="-nBqssmfjM8b4evTU4LF-105">
          <mxGeometry x="20" y="570.5" width="39.5" height="39.5" as="geometry" />
        </mxCell>
        <mxCell id="-nBqssmfjM8b4evTU4LF-288" value="" style="edgeStyle=orthogonalEdgeStyle;rounded=0;orthogonalLoop=1;jettySize=auto;html=1;" edge="1" parent="-nBqssmfjM8b4evTU4LF-105">
          <mxGeometry relative="1" as="geometry">
            <mxPoint x="34.74999355341379" y="279.38595744680845" as="sourcePoint" />
            <mxPoint x="420" y="280" as="targetPoint" />
          </mxGeometry>
        </mxCell>
        <mxCell id="-nBqssmfjM8b4evTU4LF-284" value="" style="ellipse;whiteSpace=wrap;html=1;" vertex="1" parent="-nBqssmfjM8b4evTU4LF-105">
          <mxGeometry x="20" y="260" width="39.5" height="39.5" as="geometry" />
        </mxCell>
        <mxCell id="-nBqssmfjM8b4evTU4LF-289" value="" style="ellipse;whiteSpace=wrap;html=1;" vertex="1" parent="-nBqssmfjM8b4evTU4LF-105">
          <mxGeometry x="420.25" y="272.5" width="14.5" height="14.5" as="geometry" />
        </mxCell>
        <mxCell id="-nBqssmfjM8b4evTU4LF-302" value="" style="edgeStyle=orthogonalEdgeStyle;rounded=0;orthogonalLoop=1;jettySize=auto;html=1;" edge="1" parent="-nBqssmfjM8b4evTU4LF-105" source="-nBqssmfjM8b4evTU4LF-291" target="-nBqssmfjM8b4evTU4LF-301">
          <mxGeometry relative="1" as="geometry" />
        </mxCell>
        <mxCell id="-nBqssmfjM8b4evTU4LF-291" value="วันหมดอายุ &amp;gt; วันนี้ หรือไม่" style="rhombus;whiteSpace=wrap;html=1;" vertex="1" parent="-nBqssmfjM8b4evTU4LF-105">
          <mxGeometry x="358" y="670" width="140" height="70" as="geometry" />
        </mxCell>
        <mxCell id="-nBqssmfjM8b4evTU4LF-292" value="แสดง &quot;ไม่พร้อมให้บริการ&quot;" style="shape=parallelogram;whiteSpace=wrap;html=1;" vertex="1" parent="-nBqssmfjM8b4evTU4LF-105">
          <mxGeometry x="130.5" y="690" width="170" height="40" as="geometry" />
        </mxCell>
        <mxCell id="-nBqssmfjM8b4evTU4LF-293" value="" style="edgeStyle=orthogonalEdgeStyle;rounded=0;orthogonalLoop=1;jettySize=auto;html=1;entryX=0.946;entryY=0.362;entryDx=0;entryDy=0;entryPerimeter=0;" edge="1" target="-nBqssmfjM8b4evTU4LF-292" parent="-nBqssmfjM8b4evTU4LF-105">
          <mxGeometry relative="1" as="geometry">
            <mxPoint x="358" y="704.81" as="sourcePoint" />
            <mxPoint x="300" y="704.81" as="targetPoint" />
          </mxGeometry>
        </mxCell>
        <mxCell id="-nBqssmfjM8b4evTU4LF-294" value="Fales" style="edgeLabel;html=1;align=center;verticalAlign=middle;resizable=0;points=[];" vertex="1" connectable="0" parent="-nBqssmfjM8b4evTU4LF-293">
          <mxGeometry x="-0.0881" y="-1" relative="1" as="geometry">
            <mxPoint as="offset" />
          </mxGeometry>
        </mxCell>
        <mxCell id="-nBqssmfjM8b4evTU4LF-295" value="" style="edgeStyle=orthogonalEdgeStyle;rounded=0;orthogonalLoop=1;jettySize=auto;html=1;" edge="1" parent="-nBqssmfjM8b4evTU4LF-105">
          <mxGeometry relative="1" as="geometry">
            <mxPoint x="150.5" y="706" as="sourcePoint" />
            <Array as="points">
              <mxPoint x="80.5" y="706.25" />
              <mxPoint x="80.5" y="706.25" />
            </Array>
            <mxPoint x="59.5" y="706" as="targetPoint" />
          </mxGeometry>
        </mxCell>
        <mxCell id="-nBqssmfjM8b4evTU4LF-298" value="" style="edgeStyle=orthogonalEdgeStyle;rounded=0;orthogonalLoop=1;jettySize=auto;html=1;" edge="1" parent="-nBqssmfjM8b4evTU4LF-105" source="-nBqssmfjM8b4evTU4LF-297" target="-nBqssmfjM8b4evTU4LF-283">
          <mxGeometry relative="1" as="geometry" />
        </mxCell>
        <mxCell id="-nBqssmfjM8b4evTU4LF-297" value="" style="ellipse;whiteSpace=wrap;html=1;" vertex="1" parent="-nBqssmfjM8b4evTU4LF-105">
          <mxGeometry x="20" y="685.25" width="39.5" height="39.5" as="geometry" />
        </mxCell>
        <mxCell id="-nBqssmfjM8b4evTU4LF-305" value="" style="edgeStyle=orthogonalEdgeStyle;rounded=0;orthogonalLoop=1;jettySize=auto;html=1;exitX=0.084;exitY=0.576;exitDx=0;exitDy=0;exitPerimeter=0;" edge="1" parent="-nBqssmfjM8b4evTU4LF-105" source="-nBqssmfjM8b4evTU4LF-301">
          <mxGeometry relative="1" as="geometry">
            <mxPoint x="60" y="803" as="targetPoint" />
          </mxGeometry>
        </mxCell>
        <mxCell id="-nBqssmfjM8b4evTU4LF-301" value="แสดงสินค้าให้ลูกค้าเลือก" style="shape=parallelogram;whiteSpace=wrap;html=1;" vertex="1" parent="-nBqssmfjM8b4evTU4LF-105">
          <mxGeometry x="342.5" y="780" width="170" height="40" as="geometry" />
        </mxCell>
        <mxCell id="-nBqssmfjM8b4evTU4LF-306" value="" style="edgeStyle=orthogonalEdgeStyle;rounded=0;orthogonalLoop=1;jettySize=auto;html=1;" edge="1" parent="-nBqssmfjM8b4evTU4LF-105" source="-nBqssmfjM8b4evTU4LF-303" target="-nBqssmfjM8b4evTU4LF-297">
          <mxGeometry relative="1" as="geometry" />
        </mxCell>
        <mxCell id="-nBqssmfjM8b4evTU4LF-303" value="" style="ellipse;whiteSpace=wrap;html=1;" vertex="1" parent="-nBqssmfjM8b4evTU4LF-105">
          <mxGeometry x="20" y="780" width="39.5" height="39.5" as="geometry" />
        </mxCell>
        <mxCell id="-nBqssmfjM8b4evTU4LF-315" value="" style="edgeStyle=orthogonalEdgeStyle;rounded=0;orthogonalLoop=1;jettySize=auto;html=1;" edge="1" parent="-nBqssmfjM8b4evTU4LF-105" source="-nBqssmfjM8b4evTU4LF-311">
          <mxGeometry relative="1" as="geometry">
            <mxPoint x="414.5238095238092" y="970" as="targetPoint" />
          </mxGeometry>
        </mxCell>
        <mxCell id="-nBqssmfjM8b4evTU4LF-311" value="&lt;font face=&quot;Sarabun&quot;&gt;ตรวจสอบเงินในตู้&lt;/font&gt;" style="shape=process;whiteSpace=wrap;html=1;backgroundOutline=1;" vertex="1" parent="-nBqssmfjM8b4evTU4LF-105">
          <mxGeometry x="327.5" y="910" width="175" height="40" as="geometry" />
        </mxCell>
        <mxCell id="-nBqssmfjM8b4evTU4LF-451" value="" style="edgeStyle=orthogonalEdgeStyle;rounded=0;orthogonalLoop=1;jettySize=auto;html=1;" edge="1" parent="-nBqssmfjM8b4evTU4LF-105" target="-nBqssmfjM8b4evTU4LF-316">
          <mxGeometry relative="1" as="geometry">
            <mxPoint x="414.5238095238092" y="1010" as="sourcePoint" />
          </mxGeometry>
        </mxCell>
        <mxCell id="-nBqssmfjM8b4evTU4LF-319" value="" style="edgeStyle=orthogonalEdgeStyle;rounded=0;orthogonalLoop=1;jettySize=auto;html=1;" edge="1" parent="-nBqssmfjM8b4evTU4LF-105" source="-nBqssmfjM8b4evTU4LF-316" target="-nBqssmfjM8b4evTU4LF-318">
          <mxGeometry relative="1" as="geometry" />
        </mxCell>
        <mxCell id="-nBqssmfjM8b4evTU4LF-316" value="ตรวจสอบเหรียญ 1 บาท" style="rectangle;whiteSpace=wrap;html=1;" vertex="1" parent="-nBqssmfjM8b4evTU4LF-105">
          <mxGeometry x="335" y="1060" width="160" height="40" as="geometry" />
        </mxCell>
        <mxCell id="-nBqssmfjM8b4evTU4LF-329" value="" style="edgeStyle=orthogonalEdgeStyle;rounded=0;orthogonalLoop=1;jettySize=auto;html=1;" edge="1" parent="-nBqssmfjM8b4evTU4LF-105" source="-nBqssmfjM8b4evTU4LF-318" target="-nBqssmfjM8b4evTU4LF-328">
          <mxGeometry relative="1" as="geometry" />
        </mxCell>
        <mxCell id="-nBqssmfjM8b4evTU4LF-379" value="&lt;b&gt;Ture&lt;/b&gt;" style="edgeLabel;html=1;align=center;verticalAlign=middle;resizable=0;points=[];" vertex="1" connectable="0" parent="-nBqssmfjM8b4evTU4LF-329">
          <mxGeometry x="0.2347" y="-1" relative="1" as="geometry">
            <mxPoint as="offset" />
          </mxGeometry>
        </mxCell>
        <mxCell id="-nBqssmfjM8b4evTU4LF-318" value="จำนวน &amp;gt; 0 หรือไม่" style="rhombus;whiteSpace=wrap;html=1;" vertex="1" parent="-nBqssmfjM8b4evTU4LF-105">
          <mxGeometry x="345" y="1130" width="140" height="70" as="geometry" />
        </mxCell>
        <mxCell id="-nBqssmfjM8b4evTU4LF-452" value="" style="edgeStyle=orthogonalEdgeStyle;rounded=0;orthogonalLoop=1;jettySize=auto;html=1;" edge="1" parent="-nBqssmfjM8b4evTU4LF-105" source="-nBqssmfjM8b4evTU4LF-320" target="-nBqssmfjM8b4evTU4LF-427">
          <mxGeometry relative="1" as="geometry" />
        </mxCell>
        <mxCell id="-nBqssmfjM8b4evTU4LF-320" value="แจ้ง &quot;เหรียญ 1 บาทหมด&quot;" style="shape=parallelogram;whiteSpace=wrap;html=1;" vertex="1" parent="-nBqssmfjM8b4evTU4LF-105">
          <mxGeometry x="120.5" y="1145" width="170" height="40" as="geometry" />
        </mxCell>
        <mxCell id="-nBqssmfjM8b4evTU4LF-321" value="" style="edgeStyle=orthogonalEdgeStyle;rounded=0;orthogonalLoop=1;jettySize=auto;html=1;entryX=0.946;entryY=0.362;entryDx=0;entryDy=0;entryPerimeter=0;" edge="1" parent="-nBqssmfjM8b4evTU4LF-105">
          <mxGeometry relative="1" as="geometry">
            <mxPoint x="345" y="1164.9099999999999" as="sourcePoint" />
            <mxPoint x="278.32000000000016" y="1164.58" as="targetPoint" />
          </mxGeometry>
        </mxCell>
        <mxCell id="-nBqssmfjM8b4evTU4LF-322" value="Fales" style="edgeLabel;html=1;align=center;verticalAlign=middle;resizable=0;points=[];" vertex="1" connectable="0" parent="-nBqssmfjM8b4evTU4LF-321">
          <mxGeometry x="-0.0881" y="-1" relative="1" as="geometry">
            <mxPoint as="offset" />
          </mxGeometry>
        </mxCell>
        <mxCell id="-nBqssmfjM8b4evTU4LF-331" value="" style="edgeStyle=orthogonalEdgeStyle;rounded=0;orthogonalLoop=1;jettySize=auto;html=1;" edge="1" parent="-nBqssmfjM8b4evTU4LF-105" source="-nBqssmfjM8b4evTU4LF-328" target="-nBqssmfjM8b4evTU4LF-330">
          <mxGeometry relative="1" as="geometry" />
        </mxCell>
        <mxCell id="-nBqssmfjM8b4evTU4LF-328" value="บันทึกจำนวน" style="rectangle;whiteSpace=wrap;html=1;" vertex="1" parent="-nBqssmfjM8b4evTU4LF-105">
          <mxGeometry x="335" y="1230" width="160" height="40" as="geometry" />
        </mxCell>
        <mxCell id="-nBqssmfjM8b4evTU4LF-336" value="" style="edgeStyle=orthogonalEdgeStyle;rounded=0;orthogonalLoop=1;jettySize=auto;html=1;" edge="1" parent="-nBqssmfjM8b4evTU4LF-105" source="-nBqssmfjM8b4evTU4LF-330" target="-nBqssmfjM8b4evTU4LF-332">
          <mxGeometry relative="1" as="geometry" />
        </mxCell>
        <mxCell id="-nBqssmfjM8b4evTU4LF-330" value="ตรวจสอบเหรียญ 2 บาท" style="rectangle;whiteSpace=wrap;html=1;" vertex="1" parent="-nBqssmfjM8b4evTU4LF-105">
          <mxGeometry x="335" y="1300" width="160" height="40" as="geometry" />
        </mxCell>
        <mxCell id="-nBqssmfjM8b4evTU4LF-332" value="จำนวน &amp;gt; 0 หรือไม่" style="rhombus;whiteSpace=wrap;html=1;" vertex="1" parent="-nBqssmfjM8b4evTU4LF-105">
          <mxGeometry x="344.5" y="1360" width="140" height="70" as="geometry" />
        </mxCell>
        <mxCell id="-nBqssmfjM8b4evTU4LF-333" value="แจ้ง &quot;เหรียญ 2 บาทหมด&quot;" style="shape=parallelogram;whiteSpace=wrap;html=1;" vertex="1" parent="-nBqssmfjM8b4evTU4LF-105">
          <mxGeometry x="120" y="1375" width="170" height="40" as="geometry" />
        </mxCell>
        <mxCell id="-nBqssmfjM8b4evTU4LF-334" value="" style="edgeStyle=orthogonalEdgeStyle;rounded=0;orthogonalLoop=1;jettySize=auto;html=1;entryX=0.946;entryY=0.362;entryDx=0;entryDy=0;entryPerimeter=0;" edge="1" parent="-nBqssmfjM8b4evTU4LF-105">
          <mxGeometry relative="1" as="geometry">
            <mxPoint x="344.5" y="1394.9099999999999" as="sourcePoint" />
            <mxPoint x="277.82000000000016" y="1394.58" as="targetPoint" />
          </mxGeometry>
        </mxCell>
        <mxCell id="-nBqssmfjM8b4evTU4LF-335" value="Fales" style="edgeLabel;html=1;align=center;verticalAlign=middle;resizable=0;points=[];" vertex="1" connectable="0" parent="-nBqssmfjM8b4evTU4LF-334">
          <mxGeometry x="-0.0881" y="-1" relative="1" as="geometry">
            <mxPoint as="offset" />
          </mxGeometry>
        </mxCell>
        <mxCell id="-nBqssmfjM8b4evTU4LF-337" value="" style="edgeStyle=orthogonalEdgeStyle;rounded=0;orthogonalLoop=1;jettySize=auto;html=1;" edge="1" parent="-nBqssmfjM8b4evTU4LF-105" target="-nBqssmfjM8b4evTU4LF-338">
          <mxGeometry relative="1" as="geometry">
            <mxPoint x="415" y="1430" as="sourcePoint" />
          </mxGeometry>
        </mxCell>
        <mxCell id="-nBqssmfjM8b4evTU4LF-380" value="&lt;b&gt;Ture&lt;/b&gt;" style="edgeLabel;html=1;align=center;verticalAlign=middle;resizable=0;points=[];" vertex="1" connectable="0" parent="-nBqssmfjM8b4evTU4LF-337">
          <mxGeometry x="-0.489" y="1" relative="1" as="geometry">
            <mxPoint as="offset" />
          </mxGeometry>
        </mxCell>
        <mxCell id="-nBqssmfjM8b4evTU4LF-347" value="" style="edgeStyle=orthogonalEdgeStyle;rounded=0;orthogonalLoop=1;jettySize=auto;html=1;entryX=0.5;entryY=0;entryDx=0;entryDy=0;" edge="1" parent="-nBqssmfjM8b4evTU4LF-105" source="-nBqssmfjM8b4evTU4LF-338" target="-nBqssmfjM8b4evTU4LF-340">
          <mxGeometry relative="1" as="geometry" />
        </mxCell>
        <mxCell id="-nBqssmfjM8b4evTU4LF-338" value="บันทึกจำนวน" style="rectangle;whiteSpace=wrap;html=1;" vertex="1" parent="-nBqssmfjM8b4evTU4LF-105">
          <mxGeometry x="335" y="1460" width="160" height="40" as="geometry" />
        </mxCell>
        <mxCell id="-nBqssmfjM8b4evTU4LF-339" value="" style="edgeStyle=orthogonalEdgeStyle;rounded=0;orthogonalLoop=1;jettySize=auto;html=1;entryX=0.5;entryY=0;entryDx=0;entryDy=0;" edge="1" parent="-nBqssmfjM8b4evTU4LF-105" source="-nBqssmfjM8b4evTU4LF-340" target="-nBqssmfjM8b4evTU4LF-341">
          <mxGeometry relative="1" as="geometry" />
        </mxCell>
        <mxCell id="-nBqssmfjM8b4evTU4LF-340" value="ตรวจสอบเหรียญ 5 บาท" style="rectangle;whiteSpace=wrap;html=1;" vertex="1" parent="-nBqssmfjM8b4evTU4LF-105">
          <mxGeometry x="335" y="1540" width="160" height="40" as="geometry" />
        </mxCell>
        <mxCell id="-nBqssmfjM8b4evTU4LF-341" value="จำนวน &amp;gt; 0 หรือไม่" style="rhombus;whiteSpace=wrap;html=1;" vertex="1" parent="-nBqssmfjM8b4evTU4LF-105">
          <mxGeometry x="344.5" y="1600" width="140" height="70" as="geometry" />
        </mxCell>
        <mxCell id="-nBqssmfjM8b4evTU4LF-342" value="แจ้ง &quot;เหรียญ 5 บาทหมด&quot;" style="shape=parallelogram;whiteSpace=wrap;html=1;" vertex="1" parent="-nBqssmfjM8b4evTU4LF-105">
          <mxGeometry x="122.5" y="1615" width="170" height="40" as="geometry" />
        </mxCell>
        <mxCell id="-nBqssmfjM8b4evTU4LF-343" value="" style="edgeStyle=orthogonalEdgeStyle;rounded=0;orthogonalLoop=1;jettySize=auto;html=1;entryX=0.946;entryY=0.362;entryDx=0;entryDy=0;entryPerimeter=0;" edge="1" parent="-nBqssmfjM8b4evTU4LF-105">
          <mxGeometry relative="1" as="geometry">
            <mxPoint x="344.5" y="1634.9099999999999" as="sourcePoint" />
            <mxPoint x="277.82000000000016" y="1634.58" as="targetPoint" />
          </mxGeometry>
        </mxCell>
        <mxCell id="-nBqssmfjM8b4evTU4LF-344" value="Fales" style="edgeLabel;html=1;align=center;verticalAlign=middle;resizable=0;points=[];" vertex="1" connectable="0" parent="-nBqssmfjM8b4evTU4LF-343">
          <mxGeometry x="-0.0881" y="-1" relative="1" as="geometry">
            <mxPoint as="offset" />
          </mxGeometry>
        </mxCell>
        <mxCell id="-nBqssmfjM8b4evTU4LF-345" value="" style="edgeStyle=orthogonalEdgeStyle;rounded=0;orthogonalLoop=1;jettySize=auto;html=1;" edge="1" parent="-nBqssmfjM8b4evTU4LF-105">
          <mxGeometry relative="1" as="geometry">
            <mxPoint x="415" y="1670" as="sourcePoint" />
            <mxPoint x="414.9857142857145" y="1700" as="targetPoint" />
          </mxGeometry>
        </mxCell>
        <mxCell id="-nBqssmfjM8b4evTU4LF-382" value="&lt;b&gt;Ture&lt;/b&gt;" style="edgeLabel;html=1;align=center;verticalAlign=middle;resizable=0;points=[];" vertex="1" connectable="0" parent="-nBqssmfjM8b4evTU4LF-345">
          <mxGeometry x="-0.2528" y="-1" relative="1" as="geometry">
            <mxPoint as="offset" />
          </mxGeometry>
        </mxCell>
        <mxCell id="-nBqssmfjM8b4evTU4LF-357" value="" style="edgeStyle=orthogonalEdgeStyle;rounded=0;orthogonalLoop=1;jettySize=auto;html=1;entryX=0.5;entryY=0;entryDx=0;entryDy=0;" edge="1" parent="-nBqssmfjM8b4evTU4LF-105" source="-nBqssmfjM8b4evTU4LF-346" target="-nBqssmfjM8b4evTU4LF-349">
          <mxGeometry relative="1" as="geometry" />
        </mxCell>
        <mxCell id="-nBqssmfjM8b4evTU4LF-346" value="บันทึกจำนวน" style="rectangle;whiteSpace=wrap;html=1;" vertex="1" parent="-nBqssmfjM8b4evTU4LF-105">
          <mxGeometry x="337.5" y="1700" width="160" height="40" as="geometry" />
        </mxCell>
        <mxCell id="-nBqssmfjM8b4evTU4LF-348" value="" style="edgeStyle=orthogonalEdgeStyle;rounded=0;orthogonalLoop=1;jettySize=auto;html=1;entryX=0.5;entryY=0;entryDx=0;entryDy=0;" edge="1" parent="-nBqssmfjM8b4evTU4LF-105" source="-nBqssmfjM8b4evTU4LF-349" target="-nBqssmfjM8b4evTU4LF-350">
          <mxGeometry relative="1" as="geometry" />
        </mxCell>
        <mxCell id="-nBqssmfjM8b4evTU4LF-349" value="ตรวจสอบเหรียญ 10 บาท" style="rectangle;whiteSpace=wrap;html=1;" vertex="1" parent="-nBqssmfjM8b4evTU4LF-105">
          <mxGeometry x="338" y="1780" width="160" height="40" as="geometry" />
        </mxCell>
        <mxCell id="-nBqssmfjM8b4evTU4LF-359" value="" style="edgeStyle=orthogonalEdgeStyle;rounded=0;orthogonalLoop=1;jettySize=auto;html=1;" edge="1" parent="-nBqssmfjM8b4evTU4LF-105">
          <mxGeometry relative="1" as="geometry">
            <mxPoint x="416" y="1910" as="sourcePoint" />
            <mxPoint x="419" y="1940" as="targetPoint" />
          </mxGeometry>
        </mxCell>
        <mxCell id="-nBqssmfjM8b4evTU4LF-383" value="&lt;b&gt;Ture&lt;/b&gt;" style="edgeLabel;html=1;align=center;verticalAlign=middle;resizable=0;points=[];" vertex="1" connectable="0" parent="-nBqssmfjM8b4evTU4LF-359">
          <mxGeometry x="-0.22" relative="1" as="geometry">
            <mxPoint as="offset" />
          </mxGeometry>
        </mxCell>
        <mxCell id="-nBqssmfjM8b4evTU4LF-350" value="จำนวน &amp;gt; 0 หรือไม่" style="rhombus;whiteSpace=wrap;html=1;" vertex="1" parent="-nBqssmfjM8b4evTU4LF-105">
          <mxGeometry x="348" y="1840" width="140" height="70" as="geometry" />
        </mxCell>
        <mxCell id="-nBqssmfjM8b4evTU4LF-351" value="แจ้ง &quot;เหรียญ 10 บาทหมด&quot;" style="shape=parallelogram;whiteSpace=wrap;html=1;" vertex="1" parent="-nBqssmfjM8b4evTU4LF-105">
          <mxGeometry x="122.5" y="1855" width="170" height="40" as="geometry" />
        </mxCell>
        <mxCell id="-nBqssmfjM8b4evTU4LF-352" value="" style="edgeStyle=orthogonalEdgeStyle;rounded=0;orthogonalLoop=1;jettySize=auto;html=1;entryX=0.946;entryY=0.362;entryDx=0;entryDy=0;entryPerimeter=0;" edge="1" parent="-nBqssmfjM8b4evTU4LF-105">
          <mxGeometry relative="1" as="geometry">
            <mxPoint x="344.5" y="1874.9099999999999" as="sourcePoint" />
            <mxPoint x="277.82000000000016" y="1874.58" as="targetPoint" />
          </mxGeometry>
        </mxCell>
        <mxCell id="-nBqssmfjM8b4evTU4LF-353" value="Fales" style="edgeLabel;html=1;align=center;verticalAlign=middle;resizable=0;points=[];" vertex="1" connectable="0" parent="-nBqssmfjM8b4evTU4LF-352">
          <mxGeometry x="-0.0881" y="-1" relative="1" as="geometry">
            <mxPoint as="offset" />
          </mxGeometry>
        </mxCell>
        <mxCell id="-nBqssmfjM8b4evTU4LF-368" value="" style="edgeStyle=orthogonalEdgeStyle;rounded=0;orthogonalLoop=1;jettySize=auto;html=1;entryX=0.5;entryY=0;entryDx=0;entryDy=0;" edge="1" parent="-nBqssmfjM8b4evTU4LF-105" source="-nBqssmfjM8b4evTU4LF-355" target="-nBqssmfjM8b4evTU4LF-361">
          <mxGeometry relative="1" as="geometry">
            <Array as="points">
              <mxPoint x="420" y="2000" />
              <mxPoint x="420" y="2000" />
            </Array>
          </mxGeometry>
        </mxCell>
        <mxCell id="-nBqssmfjM8b4evTU4LF-355" value="บันทึกจำนวน" style="rectangle;whiteSpace=wrap;html=1;" vertex="1" parent="-nBqssmfjM8b4evTU4LF-105">
          <mxGeometry x="338" y="1940" width="160" height="40" as="geometry" />
        </mxCell>
        <mxCell id="-nBqssmfjM8b4evTU4LF-360" value="" style="edgeStyle=orthogonalEdgeStyle;rounded=0;orthogonalLoop=1;jettySize=auto;html=1;entryX=0.5;entryY=0;entryDx=0;entryDy=0;" edge="1" parent="-nBqssmfjM8b4evTU4LF-105" source="-nBqssmfjM8b4evTU4LF-361" target="-nBqssmfjM8b4evTU4LF-363">
          <mxGeometry relative="1" as="geometry" />
        </mxCell>
        <mxCell id="-nBqssmfjM8b4evTU4LF-369" style="edgeStyle=orthogonalEdgeStyle;rounded=0;orthogonalLoop=1;jettySize=auto;html=1;" edge="1" parent="-nBqssmfjM8b4evTU4LF-105" source="-nBqssmfjM8b4evTU4LF-361">
          <mxGeometry relative="1" as="geometry">
            <mxPoint x="420.5" y="2020" as="targetPoint" />
          </mxGeometry>
        </mxCell>
        <mxCell id="-nBqssmfjM8b4evTU4LF-361" value="ตรวจสอบเหรียญ 10 บาท" style="rectangle;whiteSpace=wrap;html=1;" vertex="1" parent="-nBqssmfjM8b4evTU4LF-105">
          <mxGeometry x="340.5" y="2020" width="160" height="40" as="geometry" />
        </mxCell>
        <mxCell id="-nBqssmfjM8b4evTU4LF-362" value="" style="edgeStyle=orthogonalEdgeStyle;rounded=0;orthogonalLoop=1;jettySize=auto;html=1;" edge="1" parent="-nBqssmfjM8b4evTU4LF-105">
          <mxGeometry relative="1" as="geometry">
            <mxPoint x="418.5" y="2150" as="sourcePoint" />
            <mxPoint x="421.5" y="2180" as="targetPoint" />
          </mxGeometry>
        </mxCell>
        <mxCell id="-nBqssmfjM8b4evTU4LF-384" value="&lt;b&gt;Ture&lt;/b&gt;" style="edgeLabel;html=1;align=center;verticalAlign=middle;resizable=0;points=[];" vertex="1" connectable="0" parent="-nBqssmfjM8b4evTU4LF-362">
          <mxGeometry x="-0.2623" y="-2" relative="1" as="geometry">
            <mxPoint as="offset" />
          </mxGeometry>
        </mxCell>
        <mxCell id="-nBqssmfjM8b4evTU4LF-363" value="จำนวน &amp;gt; 0 หรือไม่" style="rhombus;whiteSpace=wrap;html=1;" vertex="1" parent="-nBqssmfjM8b4evTU4LF-105">
          <mxGeometry x="350.5" y="2080" width="140" height="70" as="geometry" />
        </mxCell>
        <mxCell id="-nBqssmfjM8b4evTU4LF-364" value="แจ้ง &quot;เหรียญ 10 บาทหมด&quot;" style="shape=parallelogram;whiteSpace=wrap;html=1;" vertex="1" parent="-nBqssmfjM8b4evTU4LF-105">
          <mxGeometry x="125" y="2095" width="170" height="40" as="geometry" />
        </mxCell>
        <mxCell id="-nBqssmfjM8b4evTU4LF-365" value="" style="edgeStyle=orthogonalEdgeStyle;rounded=0;orthogonalLoop=1;jettySize=auto;html=1;entryX=0.946;entryY=0.362;entryDx=0;entryDy=0;entryPerimeter=0;" edge="1" parent="-nBqssmfjM8b4evTU4LF-105">
          <mxGeometry relative="1" as="geometry">
            <mxPoint x="347" y="2114.91" as="sourcePoint" />
            <mxPoint x="280.32000000000016" y="2114.58" as="targetPoint" />
          </mxGeometry>
        </mxCell>
        <mxCell id="-nBqssmfjM8b4evTU4LF-366" value="Fales" style="edgeLabel;html=1;align=center;verticalAlign=middle;resizable=0;points=[];" vertex="1" connectable="0" parent="-nBqssmfjM8b4evTU4LF-365">
          <mxGeometry x="-0.0881" y="-1" relative="1" as="geometry">
            <mxPoint as="offset" />
          </mxGeometry>
        </mxCell>
        <mxCell id="-nBqssmfjM8b4evTU4LF-378" value="" style="edgeStyle=orthogonalEdgeStyle;rounded=0;orthogonalLoop=1;jettySize=auto;html=1;entryX=0.5;entryY=0;entryDx=0;entryDy=0;" edge="1" parent="-nBqssmfjM8b4evTU4LF-105" source="-nBqssmfjM8b4evTU4LF-367" target="-nBqssmfjM8b4evTU4LF-371">
          <mxGeometry relative="1" as="geometry" />
        </mxCell>
        <mxCell id="-nBqssmfjM8b4evTU4LF-367" value="บันทึกจำนวน" style="rectangle;whiteSpace=wrap;html=1;" vertex="1" parent="-nBqssmfjM8b4evTU4LF-105">
          <mxGeometry x="340.5" y="2180" width="160" height="40" as="geometry" />
        </mxCell>
        <mxCell id="-nBqssmfjM8b4evTU4LF-370" value="" style="edgeStyle=orthogonalEdgeStyle;rounded=0;orthogonalLoop=1;jettySize=auto;html=1;entryX=0.5;entryY=0;entryDx=0;entryDy=0;" edge="1" parent="-nBqssmfjM8b4evTU4LF-105" source="-nBqssmfjM8b4evTU4LF-371" target="-nBqssmfjM8b4evTU4LF-373">
          <mxGeometry relative="1" as="geometry" />
        </mxCell>
        <mxCell id="-nBqssmfjM8b4evTU4LF-371" value="ตรวจสอบเหรียญ 20 บาท" style="rectangle;whiteSpace=wrap;html=1;" vertex="1" parent="-nBqssmfjM8b4evTU4LF-105">
          <mxGeometry x="340.5" y="2260" width="160" height="40" as="geometry" />
        </mxCell>
        <mxCell id="-nBqssmfjM8b4evTU4LF-372" value="" style="edgeStyle=orthogonalEdgeStyle;rounded=0;orthogonalLoop=1;jettySize=auto;html=1;" edge="1" parent="-nBqssmfjM8b4evTU4LF-105">
          <mxGeometry relative="1" as="geometry">
            <mxPoint x="418.5" y="2390" as="sourcePoint" />
            <mxPoint x="421.5" y="2420" as="targetPoint" />
          </mxGeometry>
        </mxCell>
        <mxCell id="-nBqssmfjM8b4evTU4LF-385" value="&lt;b&gt;Ture&lt;/b&gt;" style="edgeLabel;html=1;align=center;verticalAlign=middle;resizable=0;points=[];" vertex="1" connectable="0" parent="-nBqssmfjM8b4evTU4LF-372">
          <mxGeometry x="-0.2206" relative="1" as="geometry">
            <mxPoint as="offset" />
          </mxGeometry>
        </mxCell>
        <mxCell id="-nBqssmfjM8b4evTU4LF-373" value="จำนวน &amp;gt; 0 หรือไม่" style="rhombus;whiteSpace=wrap;html=1;" vertex="1" parent="-nBqssmfjM8b4evTU4LF-105">
          <mxGeometry x="350.5" y="2320" width="140" height="70" as="geometry" />
        </mxCell>
        <mxCell id="-nBqssmfjM8b4evTU4LF-374" value="แจ้ง &quot;เหรียญ 20 บาทหมด&quot;" style="shape=parallelogram;whiteSpace=wrap;html=1;" vertex="1" parent="-nBqssmfjM8b4evTU4LF-105">
          <mxGeometry x="125" y="2335" width="170" height="40" as="geometry" />
        </mxCell>
        <mxCell id="-nBqssmfjM8b4evTU4LF-375" value="" style="edgeStyle=orthogonalEdgeStyle;rounded=0;orthogonalLoop=1;jettySize=auto;html=1;entryX=0.946;entryY=0.362;entryDx=0;entryDy=0;entryPerimeter=0;" edge="1" parent="-nBqssmfjM8b4evTU4LF-105">
          <mxGeometry relative="1" as="geometry">
            <mxPoint x="347" y="2354.91" as="sourcePoint" />
            <mxPoint x="280.32000000000016" y="2354.58" as="targetPoint" />
          </mxGeometry>
        </mxCell>
        <mxCell id="-nBqssmfjM8b4evTU4LF-376" value="Fales" style="edgeLabel;html=1;align=center;verticalAlign=middle;resizable=0;points=[];" vertex="1" connectable="0" parent="-nBqssmfjM8b4evTU4LF-375">
          <mxGeometry x="-0.0881" y="-1" relative="1" as="geometry">
            <mxPoint as="offset" />
          </mxGeometry>
        </mxCell>
        <mxCell id="-nBqssmfjM8b4evTU4LF-395" value="" style="edgeStyle=orthogonalEdgeStyle;rounded=0;orthogonalLoop=1;jettySize=auto;html=1;entryX=0.5;entryY=0;entryDx=0;entryDy=0;" edge="1" parent="-nBqssmfjM8b4evTU4LF-105" source="-nBqssmfjM8b4evTU4LF-377" target="-nBqssmfjM8b4evTU4LF-387">
          <mxGeometry relative="1" as="geometry" />
        </mxCell>
        <mxCell id="-nBqssmfjM8b4evTU4LF-377" value="บันทึกจำนวน" style="rectangle;whiteSpace=wrap;html=1;" vertex="1" parent="-nBqssmfjM8b4evTU4LF-105">
          <mxGeometry x="340.5" y="2420" width="160" height="40" as="geometry" />
        </mxCell>
        <mxCell id="-nBqssmfjM8b4evTU4LF-386" value="" style="edgeStyle=orthogonalEdgeStyle;rounded=0;orthogonalLoop=1;jettySize=auto;html=1;entryX=0.5;entryY=0;entryDx=0;entryDy=0;" edge="1" parent="-nBqssmfjM8b4evTU4LF-105" source="-nBqssmfjM8b4evTU4LF-387" target="-nBqssmfjM8b4evTU4LF-390">
          <mxGeometry relative="1" as="geometry" />
        </mxCell>
        <mxCell id="-nBqssmfjM8b4evTU4LF-387" value="ตรวจสอบเหรียญ 100 บาท" style="rectangle;whiteSpace=wrap;html=1;" vertex="1" parent="-nBqssmfjM8b4evTU4LF-105">
          <mxGeometry x="340.5" y="2490" width="160" height="40" as="geometry" />
        </mxCell>
        <mxCell id="-nBqssmfjM8b4evTU4LF-388" value="" style="edgeStyle=orthogonalEdgeStyle;rounded=0;orthogonalLoop=1;jettySize=auto;html=1;" edge="1" parent="-nBqssmfjM8b4evTU4LF-105">
          <mxGeometry relative="1" as="geometry">
            <mxPoint x="418.5" y="2620" as="sourcePoint" />
            <mxPoint x="421.5" y="2650" as="targetPoint" />
          </mxGeometry>
        </mxCell>
        <mxCell id="-nBqssmfjM8b4evTU4LF-389" value="&lt;b&gt;Ture&lt;/b&gt;" style="edgeLabel;html=1;align=center;verticalAlign=middle;resizable=0;points=[];" vertex="1" connectable="0" parent="-nBqssmfjM8b4evTU4LF-388">
          <mxGeometry x="-0.2206" relative="1" as="geometry">
            <mxPoint as="offset" />
          </mxGeometry>
        </mxCell>
        <mxCell id="-nBqssmfjM8b4evTU4LF-390" value="จำนวน &amp;gt; 0 หรือไม่" style="rhombus;whiteSpace=wrap;html=1;" vertex="1" parent="-nBqssmfjM8b4evTU4LF-105">
          <mxGeometry x="350.5" y="2550" width="140" height="70" as="geometry" />
        </mxCell>
        <mxCell id="-nBqssmfjM8b4evTU4LF-391" value="แจ้ง &quot;เหรียญ 100 บาทหมด&quot;" style="shape=parallelogram;whiteSpace=wrap;html=1;" vertex="1" parent="-nBqssmfjM8b4evTU4LF-105">
          <mxGeometry x="125" y="2565" width="170" height="40" as="geometry" />
        </mxCell>
        <mxCell id="-nBqssmfjM8b4evTU4LF-392" value="" style="edgeStyle=orthogonalEdgeStyle;rounded=0;orthogonalLoop=1;jettySize=auto;html=1;entryX=0.946;entryY=0.362;entryDx=0;entryDy=0;entryPerimeter=0;" edge="1" parent="-nBqssmfjM8b4evTU4LF-105">
          <mxGeometry relative="1" as="geometry">
            <mxPoint x="347" y="2584.91" as="sourcePoint" />
            <mxPoint x="280.32000000000016" y="2584.58" as="targetPoint" />
          </mxGeometry>
        </mxCell>
        <mxCell id="-nBqssmfjM8b4evTU4LF-393" value="Fales" style="edgeLabel;html=1;align=center;verticalAlign=middle;resizable=0;points=[];" vertex="1" connectable="0" parent="-nBqssmfjM8b4evTU4LF-392">
          <mxGeometry x="-0.0881" y="-1" relative="1" as="geometry">
            <mxPoint as="offset" />
          </mxGeometry>
        </mxCell>
        <mxCell id="-nBqssmfjM8b4evTU4LF-405" value="" style="edgeStyle=orthogonalEdgeStyle;rounded=0;orthogonalLoop=1;jettySize=auto;html=1;entryX=0.5;entryY=0;entryDx=0;entryDy=0;" edge="1" parent="-nBqssmfjM8b4evTU4LF-105" source="-nBqssmfjM8b4evTU4LF-394" target="-nBqssmfjM8b4evTU4LF-397">
          <mxGeometry relative="1" as="geometry" />
        </mxCell>
        <mxCell id="-nBqssmfjM8b4evTU4LF-394" value="บันทึกจำนวน" style="rectangle;whiteSpace=wrap;html=1;" vertex="1" parent="-nBqssmfjM8b4evTU4LF-105">
          <mxGeometry x="340.5" y="2650" width="160" height="40" as="geometry" />
        </mxCell>
        <mxCell id="-nBqssmfjM8b4evTU4LF-396" value="" style="edgeStyle=orthogonalEdgeStyle;rounded=0;orthogonalLoop=1;jettySize=auto;html=1;entryX=0.5;entryY=0;entryDx=0;entryDy=0;" edge="1" parent="-nBqssmfjM8b4evTU4LF-105" source="-nBqssmfjM8b4evTU4LF-397" target="-nBqssmfjM8b4evTU4LF-400">
          <mxGeometry relative="1" as="geometry" />
        </mxCell>
        <mxCell id="-nBqssmfjM8b4evTU4LF-397" value="ตรวจสอบเหรียญ 500 บาท" style="rectangle;whiteSpace=wrap;html=1;" vertex="1" parent="-nBqssmfjM8b4evTU4LF-105">
          <mxGeometry x="340.5" y="2740" width="160" height="40" as="geometry" />
        </mxCell>
        <mxCell id="-nBqssmfjM8b4evTU4LF-398" value="" style="edgeStyle=orthogonalEdgeStyle;rounded=0;orthogonalLoop=1;jettySize=auto;html=1;" edge="1" parent="-nBqssmfjM8b4evTU4LF-105">
          <mxGeometry relative="1" as="geometry">
            <mxPoint x="418.5" y="2870" as="sourcePoint" />
            <mxPoint x="421.5" y="2900" as="targetPoint" />
          </mxGeometry>
        </mxCell>
        <mxCell id="-nBqssmfjM8b4evTU4LF-399" value="&lt;b&gt;Ture&lt;/b&gt;" style="edgeLabel;html=1;align=center;verticalAlign=middle;resizable=0;points=[];" vertex="1" connectable="0" parent="-nBqssmfjM8b4evTU4LF-398">
          <mxGeometry x="-0.2206" relative="1" as="geometry">
            <mxPoint as="offset" />
          </mxGeometry>
        </mxCell>
        <mxCell id="-nBqssmfjM8b4evTU4LF-400" value="จำนวน &amp;gt; 0 หรือไม่" style="rhombus;whiteSpace=wrap;html=1;" vertex="1" parent="-nBqssmfjM8b4evTU4LF-105">
          <mxGeometry x="350.5" y="2800" width="140" height="70" as="geometry" />
        </mxCell>
        <mxCell id="-nBqssmfjM8b4evTU4LF-401" value="แจ้ง &quot;เหรียญ 500 บาทหมด&quot;" style="shape=parallelogram;whiteSpace=wrap;html=1;" vertex="1" parent="-nBqssmfjM8b4evTU4LF-105">
          <mxGeometry x="125" y="2815" width="170" height="40" as="geometry" />
        </mxCell>
        <mxCell id="-nBqssmfjM8b4evTU4LF-402" value="" style="edgeStyle=orthogonalEdgeStyle;rounded=0;orthogonalLoop=1;jettySize=auto;html=1;entryX=0.946;entryY=0.362;entryDx=0;entryDy=0;entryPerimeter=0;" edge="1" parent="-nBqssmfjM8b4evTU4LF-105">
          <mxGeometry relative="1" as="geometry">
            <mxPoint x="347" y="2834.91" as="sourcePoint" />
            <mxPoint x="280.32000000000016" y="2834.58" as="targetPoint" />
          </mxGeometry>
        </mxCell>
        <mxCell id="-nBqssmfjM8b4evTU4LF-403" value="Fales" style="edgeLabel;html=1;align=center;verticalAlign=middle;resizable=0;points=[];" vertex="1" connectable="0" parent="-nBqssmfjM8b4evTU4LF-402">
          <mxGeometry x="-0.0881" y="-1" relative="1" as="geometry">
            <mxPoint as="offset" />
          </mxGeometry>
        </mxCell>
        <mxCell id="-nBqssmfjM8b4evTU4LF-407" value="" style="edgeStyle=orthogonalEdgeStyle;rounded=0;orthogonalLoop=1;jettySize=auto;html=1;" edge="1" parent="-nBqssmfjM8b4evTU4LF-105" source="-nBqssmfjM8b4evTU4LF-404" target="-nBqssmfjM8b4evTU4LF-406">
          <mxGeometry relative="1" as="geometry" />
        </mxCell>
        <mxCell id="-nBqssmfjM8b4evTU4LF-404" value="บันทึกจำนวน" style="rectangle;whiteSpace=wrap;html=1;" vertex="1" parent="-nBqssmfjM8b4evTU4LF-105">
          <mxGeometry x="340.5" y="2900" width="160" height="40" as="geometry" />
        </mxCell>
        <mxCell id="-nBqssmfjM8b4evTU4LF-406" value="แสดงผลสรุปจำนวนเงินในตู้" style="shape=parallelogram;whiteSpace=wrap;html=1;" vertex="1" parent="-nBqssmfjM8b4evTU4LF-105">
          <mxGeometry x="335.5" y="2980" width="170" height="40" as="geometry" />
        </mxCell>
        <mxCell id="-nBqssmfjM8b4evTU4LF-408" value="" style="edgeStyle=orthogonalEdgeStyle;rounded=0;orthogonalLoop=1;jettySize=auto;html=1;" edge="1" parent="-nBqssmfjM8b4evTU4LF-105" target="-nBqssmfjM8b4evTU4LF-409">
          <mxGeometry relative="1" as="geometry">
            <mxPoint x="350.5" y="3000" as="sourcePoint" />
          </mxGeometry>
        </mxCell>
        <mxCell id="-nBqssmfjM8b4evTU4LF-429" value="" style="edgeStyle=orthogonalEdgeStyle;rounded=0;orthogonalLoop=1;jettySize=auto;html=1;entryX=0.5;entryY=1;entryDx=0;entryDy=0;" edge="1" parent="-nBqssmfjM8b4evTU4LF-105" source="-nBqssmfjM8b4evTU4LF-409" target="-nBqssmfjM8b4evTU4LF-411">
          <mxGeometry relative="1" as="geometry">
            <mxPoint x="49.75" y="2900.499999999999" as="targetPoint" />
          </mxGeometry>
        </mxCell>
        <mxCell id="-nBqssmfjM8b4evTU4LF-409" value="" style="ellipse;whiteSpace=wrap;html=1;" vertex="1" parent="-nBqssmfjM8b4evTU4LF-105">
          <mxGeometry x="30" y="2980.5" width="39.5" height="39.5" as="geometry" />
        </mxCell>
        <mxCell id="-nBqssmfjM8b4evTU4LF-410" value="" style="edgeStyle=orthogonalEdgeStyle;rounded=0;orthogonalLoop=1;jettySize=auto;html=1;exitX=0.106;exitY=0.469;exitDx=0;exitDy=0;exitPerimeter=0;" edge="1" parent="-nBqssmfjM8b4evTU4LF-105" target="-nBqssmfjM8b4evTU4LF-411" source="-nBqssmfjM8b4evTU4LF-401">
          <mxGeometry relative="1" as="geometry">
            <mxPoint x="160" y="2830" as="sourcePoint" />
            <Array as="points">
              <mxPoint x="143" y="2830" />
            </Array>
          </mxGeometry>
        </mxCell>
        <mxCell id="-nBqssmfjM8b4evTU4LF-431" value="" style="edgeStyle=orthogonalEdgeStyle;rounded=0;orthogonalLoop=1;jettySize=auto;html=1;entryX=0.5;entryY=1;entryDx=0;entryDy=0;" edge="1" parent="-nBqssmfjM8b4evTU4LF-105" source="-nBqssmfjM8b4evTU4LF-411" target="-nBqssmfjM8b4evTU4LF-413">
          <mxGeometry relative="1" as="geometry">
            <mxPoint x="49.75" y="2729.9999999999995" as="targetPoint" />
          </mxGeometry>
        </mxCell>
        <mxCell id="-nBqssmfjM8b4evTU4LF-411" value="" style="ellipse;whiteSpace=wrap;html=1;" vertex="1" parent="-nBqssmfjM8b4evTU4LF-105">
          <mxGeometry x="30" y="2810" width="39.5" height="39.5" as="geometry" />
        </mxCell>
        <mxCell id="-nBqssmfjM8b4evTU4LF-412" value="" style="edgeStyle=orthogonalEdgeStyle;rounded=0;orthogonalLoop=1;jettySize=auto;html=1;exitX=0.079;exitY=0.606;exitDx=0;exitDy=0;exitPerimeter=0;" edge="1" parent="-nBqssmfjM8b4evTU4LF-105" target="-nBqssmfjM8b4evTU4LF-413" source="-nBqssmfjM8b4evTU4LF-391">
          <mxGeometry relative="1" as="geometry">
            <mxPoint x="153" y="2589" as="sourcePoint" />
            <Array as="points">
              <mxPoint x="140" y="2589" />
              <mxPoint x="140" y="2585" />
            </Array>
          </mxGeometry>
        </mxCell>
        <mxCell id="-nBqssmfjM8b4evTU4LF-436" value="" style="edgeStyle=orthogonalEdgeStyle;rounded=0;orthogonalLoop=1;jettySize=auto;html=1;entryX=0.5;entryY=1;entryDx=0;entryDy=0;" edge="1" parent="-nBqssmfjM8b4evTU4LF-105" source="-nBqssmfjM8b4evTU4LF-413" target="-nBqssmfjM8b4evTU4LF-415">
          <mxGeometry relative="1" as="geometry">
            <mxPoint x="49.75" y="2484.9999999999995" as="targetPoint" />
          </mxGeometry>
        </mxCell>
        <mxCell id="-nBqssmfjM8b4evTU4LF-413" value="" style="ellipse;whiteSpace=wrap;html=1;" vertex="1" parent="-nBqssmfjM8b4evTU4LF-105">
          <mxGeometry x="30" y="2565" width="39.5" height="39.5" as="geometry" />
        </mxCell>
        <mxCell id="-nBqssmfjM8b4evTU4LF-414" value="" style="edgeStyle=orthogonalEdgeStyle;rounded=0;orthogonalLoop=1;jettySize=auto;html=1;exitX=0.106;exitY=0.469;exitDx=0;exitDy=0;exitPerimeter=0;" edge="1" parent="-nBqssmfjM8b4evTU4LF-105" target="-nBqssmfjM8b4evTU4LF-415">
          <mxGeometry relative="1" as="geometry">
            <mxPoint x="143" y="2354" as="sourcePoint" />
            <Array as="points">
              <mxPoint x="143" y="2350" />
            </Array>
          </mxGeometry>
        </mxCell>
        <mxCell id="-nBqssmfjM8b4evTU4LF-438" value="" style="edgeStyle=orthogonalEdgeStyle;rounded=0;orthogonalLoop=1;jettySize=auto;html=1;entryX=0.5;entryY=1;entryDx=0;entryDy=0;" edge="1" parent="-nBqssmfjM8b4evTU4LF-105" source="-nBqssmfjM8b4evTU4LF-415" target="-nBqssmfjM8b4evTU4LF-417">
          <mxGeometry relative="1" as="geometry">
            <mxPoint x="49.75" y="2250" as="targetPoint" />
          </mxGeometry>
        </mxCell>
        <mxCell id="-nBqssmfjM8b4evTU4LF-415" value="" style="ellipse;whiteSpace=wrap;html=1;" vertex="1" parent="-nBqssmfjM8b4evTU4LF-105">
          <mxGeometry x="30" y="2330" width="39.5" height="39.5" as="geometry" />
        </mxCell>
        <mxCell id="-nBqssmfjM8b4evTU4LF-416" value="" style="edgeStyle=orthogonalEdgeStyle;rounded=0;orthogonalLoop=1;jettySize=auto;html=1;exitX=0.106;exitY=0.469;exitDx=0;exitDy=0;exitPerimeter=0;" edge="1" parent="-nBqssmfjM8b4evTU4LF-105" target="-nBqssmfjM8b4evTU4LF-417">
          <mxGeometry relative="1" as="geometry">
            <mxPoint x="143" y="2119" as="sourcePoint" />
            <Array as="points">
              <mxPoint x="143" y="2115" />
            </Array>
          </mxGeometry>
        </mxCell>
        <mxCell id="-nBqssmfjM8b4evTU4LF-440" value="" style="edgeStyle=orthogonalEdgeStyle;rounded=0;orthogonalLoop=1;jettySize=auto;html=1;entryX=0.5;entryY=1;entryDx=0;entryDy=0;" edge="1" parent="-nBqssmfjM8b4evTU4LF-105" source="-nBqssmfjM8b4evTU4LF-417" target="-nBqssmfjM8b4evTU4LF-419">
          <mxGeometry relative="1" as="geometry">
            <mxPoint x="49.75" y="2015" as="targetPoint" />
          </mxGeometry>
        </mxCell>
        <mxCell id="-nBqssmfjM8b4evTU4LF-417" value="" style="ellipse;whiteSpace=wrap;html=1;" vertex="1" parent="-nBqssmfjM8b4evTU4LF-105">
          <mxGeometry x="30" y="2095" width="39.5" height="39.5" as="geometry" />
        </mxCell>
        <mxCell id="-nBqssmfjM8b4evTU4LF-418" value="" style="edgeStyle=orthogonalEdgeStyle;rounded=0;orthogonalLoop=1;jettySize=auto;html=1;exitX=0.106;exitY=0.469;exitDx=0;exitDy=0;exitPerimeter=0;" edge="1" parent="-nBqssmfjM8b4evTU4LF-105" target="-nBqssmfjM8b4evTU4LF-419">
          <mxGeometry relative="1" as="geometry">
            <mxPoint x="143" y="1874" as="sourcePoint" />
            <Array as="points">
              <mxPoint x="143" y="1870" />
            </Array>
          </mxGeometry>
        </mxCell>
        <mxCell id="-nBqssmfjM8b4evTU4LF-442" value="" style="edgeStyle=orthogonalEdgeStyle;rounded=0;orthogonalLoop=1;jettySize=auto;html=1;entryX=0.5;entryY=1;entryDx=0;entryDy=0;" edge="1" parent="-nBqssmfjM8b4evTU4LF-105" source="-nBqssmfjM8b4evTU4LF-419" target="-nBqssmfjM8b4evTU4LF-421">
          <mxGeometry relative="1" as="geometry">
            <mxPoint x="49.75" y="1770" as="targetPoint" />
          </mxGeometry>
        </mxCell>
        <mxCell id="-nBqssmfjM8b4evTU4LF-419" value="" style="ellipse;whiteSpace=wrap;html=1;" vertex="1" parent="-nBqssmfjM8b4evTU4LF-105">
          <mxGeometry x="30" y="1850" width="39.5" height="39.5" as="geometry" />
        </mxCell>
        <mxCell id="-nBqssmfjM8b4evTU4LF-420" value="" style="edgeStyle=orthogonalEdgeStyle;rounded=0;orthogonalLoop=1;jettySize=auto;html=1;exitX=0.106;exitY=0.469;exitDx=0;exitDy=0;exitPerimeter=0;" edge="1" parent="-nBqssmfjM8b4evTU4LF-105" target="-nBqssmfjM8b4evTU4LF-421">
          <mxGeometry relative="1" as="geometry">
            <mxPoint x="143" y="1634" as="sourcePoint" />
            <Array as="points">
              <mxPoint x="143" y="1630" />
            </Array>
          </mxGeometry>
        </mxCell>
        <mxCell id="-nBqssmfjM8b4evTU4LF-444" value="" style="edgeStyle=orthogonalEdgeStyle;rounded=0;orthogonalLoop=1;jettySize=auto;html=1;entryX=0.5;entryY=1;entryDx=0;entryDy=0;" edge="1" parent="-nBqssmfjM8b4evTU4LF-105" source="-nBqssmfjM8b4evTU4LF-421" target="-nBqssmfjM8b4evTU4LF-423">
          <mxGeometry relative="1" as="geometry">
            <mxPoint x="49.75" y="1530" as="targetPoint" />
          </mxGeometry>
        </mxCell>
        <mxCell id="-nBqssmfjM8b4evTU4LF-421" value="" style="ellipse;whiteSpace=wrap;html=1;" vertex="1" parent="-nBqssmfjM8b4evTU4LF-105">
          <mxGeometry x="30" y="1610" width="39.5" height="39.5" as="geometry" />
        </mxCell>
        <mxCell id="-nBqssmfjM8b4evTU4LF-422" value="" style="edgeStyle=orthogonalEdgeStyle;rounded=0;orthogonalLoop=1;jettySize=auto;html=1;exitX=0.097;exitY=0.537;exitDx=0;exitDy=0;exitPerimeter=0;" edge="1" parent="-nBqssmfjM8b4evTU4LF-105" target="-nBqssmfjM8b4evTU4LF-423" source="-nBqssmfjM8b4evTU4LF-333">
          <mxGeometry relative="1" as="geometry">
            <mxPoint x="143" y="1399" as="sourcePoint" />
            <Array as="points">
              <mxPoint x="100" y="1397" />
              <mxPoint x="100" y="1395" />
            </Array>
          </mxGeometry>
        </mxCell>
        <mxCell id="-nBqssmfjM8b4evTU4LF-446" value="" style="edgeStyle=orthogonalEdgeStyle;rounded=0;orthogonalLoop=1;jettySize=auto;html=1;entryX=0.5;entryY=1;entryDx=0;entryDy=0;" edge="1" parent="-nBqssmfjM8b4evTU4LF-105" source="-nBqssmfjM8b4evTU4LF-423" target="-nBqssmfjM8b4evTU4LF-427">
          <mxGeometry relative="1" as="geometry">
            <mxPoint x="49.75" y="1295" as="targetPoint" />
          </mxGeometry>
        </mxCell>
        <mxCell id="-nBqssmfjM8b4evTU4LF-423" value="" style="ellipse;whiteSpace=wrap;html=1;" vertex="1" parent="-nBqssmfjM8b4evTU4LF-105">
          <mxGeometry x="30" y="1375" width="39.5" height="39.5" as="geometry" />
        </mxCell>
        <mxCell id="-nBqssmfjM8b4evTU4LF-426" value="" style="edgeStyle=orthogonalEdgeStyle;rounded=0;orthogonalLoop=1;jettySize=auto;html=1;exitX=0.102;exitY=0.506;exitDx=0;exitDy=0;exitPerimeter=0;" edge="1" parent="-nBqssmfjM8b4evTU4LF-105" target="-nBqssmfjM8b4evTU4LF-427" source="-nBqssmfjM8b4evTU4LF-320">
          <mxGeometry relative="1" as="geometry">
            <mxPoint x="143" y="1169" as="sourcePoint" />
            <Array as="points" />
          </mxGeometry>
        </mxCell>
        <mxCell id="-nBqssmfjM8b4evTU4LF-448" value="" style="edgeStyle=orthogonalEdgeStyle;rounded=0;orthogonalLoop=1;jettySize=auto;html=1;entryX=0;entryY=0.5;entryDx=0;entryDy=0;exitX=0.5;exitY=0;exitDx=0;exitDy=0;" edge="1" parent="-nBqssmfjM8b4evTU4LF-105" source="-nBqssmfjM8b4evTU4LF-427" target="-nBqssmfjM8b4evTU4LF-449">
          <mxGeometry relative="1" as="geometry">
            <mxPoint x="50" y="970" as="targetPoint" />
          </mxGeometry>
        </mxCell>
        <mxCell id="-nBqssmfjM8b4evTU4LF-427" value="" style="ellipse;whiteSpace=wrap;html=1;" vertex="1" parent="-nBqssmfjM8b4evTU4LF-105">
          <mxGeometry x="30" y="1145" width="39.5" height="39.5" as="geometry" />
        </mxCell>
        <mxCell id="-nBqssmfjM8b4evTU4LF-449" value="" style="ellipse;whiteSpace=wrap;html=1;" vertex="1" parent="-nBqssmfjM8b4evTU4LF-105">
          <mxGeometry x="399.5" y="1020" width="30" height="30" as="geometry" />
        </mxCell>
        <mxCell id="-nBqssmfjM8b4evTU4LF-308" value="" style="endArrow=classic;html=1;rounded=0;" edge="1" parent="-nBqssmfjM8b4evTU4LF-105">
          <mxGeometry width="50" height="50" relative="1" as="geometry">
            <mxPoint x="304.71000000000004" y="880" as="sourcePoint" />
            <mxPoint x="305.21000000000004" y="910" as="targetPoint" />
          </mxGeometry>
        </mxCell>
        <mxCell id="-nBqssmfjM8b4evTU4LF-309" value="" style="verticalLabelPosition=bottom;verticalAlign=top;html=1;shape=offPageConnector;rounded=0;size=0.5;" vertex="1" parent="-nBqssmfjM8b4evTU4LF-105">
          <mxGeometry x="290" y="850" width="30" height="30" as="geometry" />
        </mxCell>
        <mxCell id="-nBqssmfjM8b4evTU4LF-310" value="ข" style="text;html=1;align=center;verticalAlign=middle;resizable=0;points=[];autosize=1;strokeColor=none;fillColor=none;fontFamily=Sarabun;fontSource=https://fonts.googleapis.com/css?family=Sarabun;" vertex="1" parent="-nBqssmfjM8b4evTU4LF-105">
          <mxGeometry x="290" y="845" width="30" height="30" as="geometry" />
        </mxCell>
        <mxCell id="-nBqssmfjM8b4evTU4LF-477" value="" style="edgeStyle=orthogonalEdgeStyle;rounded=0;orthogonalLoop=1;jettySize=auto;html=1;" edge="1" parent="-nBqssmfjM8b4evTU4LF-105" source="-nBqssmfjM8b4evTU4LF-468">
          <mxGeometry relative="1" as="geometry">
            <mxPoint x="1180.5" y="170" as="targetPoint" />
          </mxGeometry>
        </mxCell>
        <mxCell id="-nBqssmfjM8b4evTU4LF-468" value="รายการสินค้า" style="shape=process;whiteSpace=wrap;html=1;backgroundOutline=1;" vertex="1" parent="-nBqssmfjM8b4evTU4LF-105">
          <mxGeometry x="1093" y="80" width="175" height="40" as="geometry" />
        </mxCell>
        <mxCell id="-nBqssmfjM8b4evTU4LF-473" value="" style="endArrow=classic;html=1;rounded=0;" edge="1" parent="-nBqssmfjM8b4evTU4LF-105">
          <mxGeometry width="50" height="50" relative="1" as="geometry">
            <mxPoint x="1064.71" y="75" as="sourcePoint" />
            <mxPoint x="1065.21" y="105" as="targetPoint" />
          </mxGeometry>
        </mxCell>
        <mxCell id="-nBqssmfjM8b4evTU4LF-474" value="" style="verticalLabelPosition=bottom;verticalAlign=top;html=1;shape=offPageConnector;rounded=0;size=0.5;" vertex="1" parent="-nBqssmfjM8b4evTU4LF-105">
          <mxGeometry x="1050" y="45" width="30" height="30" as="geometry" />
        </mxCell>
        <mxCell id="-nBqssmfjM8b4evTU4LF-475" value="ค" style="text;html=1;align=center;verticalAlign=middle;resizable=0;points=[];autosize=1;strokeColor=none;fillColor=none;fontFamily=Sarabun;fontSource=https://fonts.googleapis.com/css?family=Sarabun;" vertex="1" parent="-nBqssmfjM8b4evTU4LF-105">
          <mxGeometry x="1050" y="40" width="30" height="30" as="geometry" />
        </mxCell>
        <mxCell id="-nBqssmfjM8b4evTU4LF-480" value="" style="edgeStyle=orthogonalEdgeStyle;rounded=0;orthogonalLoop=1;jettySize=auto;html=1;" edge="1" parent="-nBqssmfjM8b4evTU4LF-105" source="-nBqssmfjM8b4evTU4LF-478" target="-nBqssmfjM8b4evTU4LF-479">
          <mxGeometry relative="1" as="geometry" />
        </mxCell>
        <mxCell id="-nBqssmfjM8b4evTU4LF-478" value="ID:D01 ชื่อ: โค้ก&amp;nbsp;&amp;nbsp;ราคา: 10&amp;nbsp;&lt;div&gt;จำนวน: 5&amp;nbsp;ประเภท: เครื่องดื่ม&lt;/div&gt;&lt;div&gt;วันหมดอายุ:&amp;nbsp;30/08/2025&lt;/div&gt;" style="shape=parallelogram;perimeter=parallelogramPerimeter;whiteSpace=wrap;html=1;fixedSize=1;fontFamily=Sarabun;fontSource=https://fonts.googleapis.com/css?family=Sarabun;" vertex="1" parent="-nBqssmfjM8b4evTU4LF-105">
          <mxGeometry x="1090" y="170" width="180" height="60" as="geometry" />
        </mxCell>
        <mxCell id="-nBqssmfjM8b4evTU4LF-482" value="" style="edgeStyle=orthogonalEdgeStyle;rounded=0;orthogonalLoop=1;jettySize=auto;html=1;" edge="1" parent="-nBqssmfjM8b4evTU4LF-105" source="-nBqssmfjM8b4evTU4LF-479" target="-nBqssmfjM8b4evTU4LF-481">
          <mxGeometry relative="1" as="geometry" />
        </mxCell>
        <mxCell id="-nBqssmfjM8b4evTU4LF-479" value="ID:D02 ชื่อ: น้ำเขียว&amp;nbsp;&amp;nbsp;ราคา:&amp;nbsp;12&amp;nbsp;&lt;div&gt;จำนวน:&amp;nbsp;3 ประเภท: เครื่องดื่ม&lt;/div&gt;&lt;div&gt;วันหมดอายุ:&amp;nbsp;28/08/2025&lt;/div&gt;" style="shape=parallelogram;perimeter=parallelogramPerimeter;whiteSpace=wrap;html=1;fixedSize=1;fontFamily=Sarabun;fontSource=https://fonts.googleapis.com/css?family=Sarabun;" vertex="1" parent="-nBqssmfjM8b4evTU4LF-105">
          <mxGeometry x="1080" y="310" width="200" height="60" as="geometry" />
        </mxCell>
        <mxCell id="-nBqssmfjM8b4evTU4LF-484" value="" style="edgeStyle=orthogonalEdgeStyle;rounded=0;orthogonalLoop=1;jettySize=auto;html=1;" edge="1" parent="-nBqssmfjM8b4evTU4LF-105" source="-nBqssmfjM8b4evTU4LF-481" target="-nBqssmfjM8b4evTU4LF-483">
          <mxGeometry relative="1" as="geometry" />
        </mxCell>
        <mxCell id="-nBqssmfjM8b4evTU4LF-481" value="ID:D03 ชื่อ: อเมริกาโน่&amp;nbsp;&amp;nbsp;ราคา:&amp;nbsp;30&amp;nbsp;&lt;div&gt;จำนวน: 2 ประเภท: เครื่องดื่ม&lt;/div&gt;&lt;div&gt;วันหมดอายุ:&amp;nbsp;01/09/2025&lt;/div&gt;" style="shape=parallelogram;perimeter=parallelogramPerimeter;whiteSpace=wrap;html=1;fixedSize=1;fontFamily=Sarabun;fontSource=https://fonts.googleapis.com/css?family=Sarabun;" vertex="1" parent="-nBqssmfjM8b4evTU4LF-105">
          <mxGeometry x="1080.5" y="450" width="200" height="60" as="geometry" />
        </mxCell>
        <mxCell id="-nBqssmfjM8b4evTU4LF-486" value="" style="edgeStyle=orthogonalEdgeStyle;rounded=0;orthogonalLoop=1;jettySize=auto;html=1;" edge="1" parent="-nBqssmfjM8b4evTU4LF-105" source="-nBqssmfjM8b4evTU4LF-483" target="-nBqssmfjM8b4evTU4LF-485">
          <mxGeometry relative="1" as="geometry" />
        </mxCell>
        <mxCell id="-nBqssmfjM8b4evTU4LF-483" value="ID:D04 ชื่อ: ลาเต้ หวานเจี๊ยบ&amp;nbsp;ราคา:&amp;nbsp;35&lt;div&gt;จำนวน: 1 ประเภท: เครื่องดื่ม&lt;/div&gt;&lt;div&gt;วันหมดอายุ:&amp;nbsp;01/09/2025&lt;/div&gt;" style="shape=parallelogram;perimeter=parallelogramPerimeter;whiteSpace=wrap;html=1;fixedSize=1;fontFamily=Sarabun;fontSource=https://fonts.googleapis.com/css?family=Sarabun;" vertex="1" parent="-nBqssmfjM8b4evTU4LF-105">
          <mxGeometry x="1064.75" y="590" width="230.5" height="60" as="geometry" />
        </mxCell>
        <mxCell id="-nBqssmfjM8b4evTU4LF-488" value="" style="edgeStyle=orthogonalEdgeStyle;rounded=0;orthogonalLoop=1;jettySize=auto;html=1;" edge="1" parent="-nBqssmfjM8b4evTU4LF-105" source="-nBqssmfjM8b4evTU4LF-485" target="-nBqssmfjM8b4evTU4LF-487">
          <mxGeometry relative="1" as="geometry" />
        </mxCell>
        <mxCell id="-nBqssmfjM8b4evTU4LF-485" value="ID:D04 ชื่อ: ลาเต้ หวานเจี๊ยบ&amp;nbsp;ราคา:&amp;nbsp;35&lt;div&gt;จำนวน: 1 ประเภท: เครื่องดื่ม&lt;/div&gt;&lt;div&gt;วันหมดอายุ:&amp;nbsp;01/09/2025&lt;/div&gt;" style="shape=parallelogram;perimeter=parallelogramPerimeter;whiteSpace=wrap;html=1;fixedSize=1;fontFamily=Sarabun;fontSource=https://fonts.googleapis.com/css?family=Sarabun;" vertex="1" parent="-nBqssmfjM8b4evTU4LF-105">
          <mxGeometry x="1064.75" y="730" width="230.5" height="60" as="geometry" />
        </mxCell>
        <mxCell id="-nBqssmfjM8b4evTU4LF-490" value="" style="edgeStyle=orthogonalEdgeStyle;rounded=0;orthogonalLoop=1;jettySize=auto;html=1;" edge="1" parent="-nBqssmfjM8b4evTU4LF-105" source="-nBqssmfjM8b4evTU4LF-487" target="-nBqssmfjM8b4evTU4LF-489">
          <mxGeometry relative="1" as="geometry" />
        </mxCell>
        <mxCell id="-nBqssmfjM8b4evTU4LF-487" value="ID:S01 ชื่อ: เมล็ดทานตะวัน&amp;nbsp;ราคา:&amp;nbsp;13&lt;div&gt;จำนวน: 10 ประเภท: ขนม&lt;/div&gt;&lt;div&gt;วันหมดอายุ:&amp;nbsp;15/10/2025&lt;/div&gt;" style="shape=parallelogram;perimeter=parallelogramPerimeter;whiteSpace=wrap;html=1;fixedSize=1;fontFamily=Sarabun;fontSource=https://fonts.googleapis.com/css?family=Sarabun;" vertex="1" parent="-nBqssmfjM8b4evTU4LF-105">
          <mxGeometry x="1064.75" y="870" width="230.5" height="60" as="geometry" />
        </mxCell>
        <mxCell id="-nBqssmfjM8b4evTU4LF-492" value="" style="edgeStyle=orthogonalEdgeStyle;rounded=0;orthogonalLoop=1;jettySize=auto;html=1;" edge="1" parent="-nBqssmfjM8b4evTU4LF-105" source="-nBqssmfjM8b4evTU4LF-489" target="-nBqssmfjM8b4evTU4LF-491">
          <mxGeometry relative="1" as="geometry" />
        </mxCell>
        <mxCell id="-nBqssmfjM8b4evTU4LF-489" value="ID:S02 ชื่อ: ถั่วแปบ ราคา: 20&lt;div&gt;จำนวน: 4 ประเภท: ขนม&lt;/div&gt;&lt;div&gt;วันหมดอายุ:&amp;nbsp;20/07/2025&lt;/div&gt;" style="shape=parallelogram;perimeter=parallelogramPerimeter;whiteSpace=wrap;html=1;fixedSize=1;fontFamily=Sarabun;fontSource=https://fonts.googleapis.com/css?family=Sarabun;" vertex="1" parent="-nBqssmfjM8b4evTU4LF-105">
          <mxGeometry x="1064.75" y="1010" width="230.5" height="60" as="geometry" />
        </mxCell>
        <mxCell id="-nBqssmfjM8b4evTU4LF-491" value="ID:S03 ชื่อ: จิ้นส้มหมก ราคา: 15&lt;div&gt;จำนวน: 6 ประเภท: ขนม&lt;/div&gt;&lt;div&gt;วันหมดอายุ:&amp;nbsp;19/07/2025&lt;/div&gt;" style="shape=parallelogram;perimeter=parallelogramPerimeter;whiteSpace=wrap;html=1;fixedSize=1;fontFamily=Sarabun;fontSource=https://fonts.googleapis.com/css?family=Sarabun;" vertex="1" parent="-nBqssmfjM8b4evTU4LF-105">
          <mxGeometry x="1064.75" y="1150" width="230.5" height="60" as="geometry" />
        </mxCell>
        <mxCell id="-nBqssmfjM8b4evTU4LF-493" value="รายการสินค้า" style="shape=process;whiteSpace=wrap;html=1;backgroundOutline=1;" vertex="1" parent="-nBqssmfjM8b4evTU4LF-105">
          <mxGeometry x="340" y="190" width="175" height="40" as="geometry" />
        </mxCell>
        <mxCell id="-nBqssmfjM8b4evTU4LF-496" value="" style="endArrow=classic;html=1;rounded=0;" edge="1" parent="-nBqssmfjM8b4evTU4LF-105">
          <mxGeometry width="50" height="50" relative="1" as="geometry">
            <mxPoint x="309.75" y="150" as="sourcePoint" />
            <mxPoint x="310.25" y="180" as="targetPoint" />
          </mxGeometry>
        </mxCell>
        <mxCell id="-nBqssmfjM8b4evTU4LF-497" value="" style="verticalLabelPosition=bottom;verticalAlign=top;html=1;shape=offPageConnector;rounded=0;size=0.5;" vertex="1" parent="-nBqssmfjM8b4evTU4LF-105">
          <mxGeometry x="295" y="180" width="30" height="30" as="geometry" />
        </mxCell>
        <mxCell id="-nBqssmfjM8b4evTU4LF-498" value="ค" style="text;html=1;align=center;verticalAlign=middle;resizable=0;points=[];autosize=1;strokeColor=none;fillColor=none;fontFamily=Sarabun;fontSource=https://fonts.googleapis.com/css?family=Sarabun;" vertex="1" parent="-nBqssmfjM8b4evTU4LF-105">
          <mxGeometry x="295" y="175" width="30" height="30" as="geometry" />
        </mxCell>
        <mxCell id="-nBqssmfjM8b4evTU4LF-506" value="" style="endArrow=classic;html=1;rounded=0;" edge="1" parent="-nBqssmfjM8b4evTU4LF-105">
          <mxGeometry width="50" height="50" relative="1" as="geometry">
            <mxPoint x="1065.21" y="1285" as="sourcePoint" />
            <mxPoint x="1065.71" y="1315" as="targetPoint" />
          </mxGeometry>
        </mxCell>
        <mxCell id="-nBqssmfjM8b4evTU4LF-507" value="" style="verticalLabelPosition=bottom;verticalAlign=top;html=1;shape=offPageConnector;rounded=0;size=0.5;" vertex="1" parent="-nBqssmfjM8b4evTU4LF-105">
          <mxGeometry x="1050.5" y="1255" width="30" height="30" as="geometry" />
        </mxCell>
        <mxCell id="-nBqssmfjM8b4evTU4LF-508" value="ง" style="text;html=1;align=center;verticalAlign=middle;resizable=0;points=[];autosize=1;strokeColor=none;fillColor=none;fontFamily=Sarabun;fontSource=https://fonts.googleapis.com/css?family=Sarabun;" vertex="1" parent="-nBqssmfjM8b4evTU4LF-105">
          <mxGeometry x="1050.5" y="1250" width="30" height="30" as="geometry" />
        </mxCell>
        <mxCell id="-nBqssmfjM8b4evTU4LF-511" value="" style="edgeStyle=orthogonalEdgeStyle;rounded=0;orthogonalLoop=1;jettySize=auto;html=1;" edge="1" parent="-nBqssmfjM8b4evTU4LF-105" source="-nBqssmfjM8b4evTU4LF-509" target="-nBqssmfjM8b4evTU4LF-510">
          <mxGeometry relative="1" as="geometry" />
        </mxCell>
        <mxCell id="-nBqssmfjM8b4evTU4LF-509" value="&lt;font face=&quot;Sarabun&quot;&gt;ระบบทอนเงิน&lt;/font&gt;" style="shape=process;whiteSpace=wrap;html=1;backgroundOutline=1;" vertex="1" parent="-nBqssmfjM8b4evTU4LF-105">
          <mxGeometry x="1092.5" y="1290" width="175" height="40" as="geometry" />
        </mxCell>
        <mxCell id="-nBqssmfjM8b4evTU4LF-513" value="" style="edgeStyle=orthogonalEdgeStyle;rounded=0;orthogonalLoop=1;jettySize=auto;html=1;" edge="1" parent="-nBqssmfjM8b4evTU4LF-105" source="-nBqssmfjM8b4evTU4LF-510" target="-nBqssmfjM8b4evTU4LF-512">
          <mxGeometry relative="1" as="geometry" />
        </mxCell>
        <mxCell id="-nBqssmfjM8b4evTU4LF-510" value="รับราคาสินค้า และจำนวนเงินที่จ่าย" style="shape=parallelogram;perimeter=parallelogramPerimeter;whiteSpace=wrap;html=1;fixedSize=1;fontFamily=Sarabun;fontSource=https://fonts.googleapis.com/css?family=Sarabun;" vertex="1" parent="-nBqssmfjM8b4evTU4LF-105">
          <mxGeometry x="1064.75" y="1400" width="230.5" height="60" as="geometry" />
        </mxCell>
        <mxCell id="-nBqssmfjM8b4evTU4LF-554" value="" style="edgeStyle=orthogonalEdgeStyle;rounded=0;orthogonalLoop=1;jettySize=auto;html=1;entryX=0.5;entryY=0;entryDx=0;entryDy=0;" edge="1" parent="-nBqssmfjM8b4evTU4LF-105" source="-nBqssmfjM8b4evTU4LF-512" target="-nBqssmfjM8b4evTU4LF-516">
          <mxGeometry relative="1" as="geometry" />
        </mxCell>
        <mxCell id="-nBqssmfjM8b4evTU4LF-512" value="คำนวณเงินทอน = เงินที่จ่าย - ราคาสินค้า" style="rectangle;whiteSpace=wrap;html=1;" vertex="1" parent="-nBqssmfjM8b4evTU4LF-105">
          <mxGeometry x="1080.5" y="1510" width="200" height="50" as="geometry" />
        </mxCell>
        <mxCell id="-nBqssmfjM8b4evTU4LF-522" value="" style="edgeStyle=orthogonalEdgeStyle;rounded=0;orthogonalLoop=1;jettySize=auto;html=1;" edge="1" parent="-nBqssmfjM8b4evTU4LF-105" source="-nBqssmfjM8b4evTU4LF-516" target="-nBqssmfjM8b4evTU4LF-521">
          <mxGeometry relative="1" as="geometry" />
        </mxCell>
        <mxCell id="-nBqssmfjM8b4evTU4LF-516" value="&lt;font face=&quot;Sarabun&quot;&gt;ตรวจสอบเงินในตู้&lt;/font&gt;" style="shape=process;whiteSpace=wrap;html=1;backgroundOutline=1;" vertex="1" parent="-nBqssmfjM8b4evTU4LF-105">
          <mxGeometry x="1092.5" y="1615" width="175" height="40" as="geometry" />
        </mxCell>
        <mxCell id="-nBqssmfjM8b4evTU4LF-517" value="" style="endArrow=classic;html=1;rounded=0;" edge="1" parent="-nBqssmfjM8b4evTU4LF-105">
          <mxGeometry width="50" height="50" relative="1" as="geometry">
            <mxPoint x="1064.71" y="1599.75" as="sourcePoint" />
            <mxPoint x="1065.21" y="1629.75" as="targetPoint" />
          </mxGeometry>
        </mxCell>
        <mxCell id="-nBqssmfjM8b4evTU4LF-518" value="" style="verticalLabelPosition=bottom;verticalAlign=top;html=1;shape=offPageConnector;rounded=0;size=0.5;" vertex="1" parent="-nBqssmfjM8b4evTU4LF-105">
          <mxGeometry x="1050" y="1629.75" width="30" height="30" as="geometry" />
        </mxCell>
        <mxCell id="-nBqssmfjM8b4evTU4LF-519" value="ข" style="text;html=1;align=center;verticalAlign=middle;resizable=0;points=[];autosize=1;strokeColor=none;fillColor=none;fontFamily=Sarabun;fontSource=https://fonts.googleapis.com/css?family=Sarabun;" vertex="1" parent="-nBqssmfjM8b4evTU4LF-105">
          <mxGeometry x="1050" y="1624.75" width="30" height="30" as="geometry" />
        </mxCell>
        <mxCell id="-nBqssmfjM8b4evTU4LF-524" value="" style="edgeStyle=orthogonalEdgeStyle;rounded=0;orthogonalLoop=1;jettySize=auto;html=1;entryX=0.913;entryY=0.5;entryDx=0;entryDy=0;entryPerimeter=0;" edge="1" parent="-nBqssmfjM8b4evTU4LF-105" source="-nBqssmfjM8b4evTU4LF-521" target="-nBqssmfjM8b4evTU4LF-523">
          <mxGeometry relative="1" as="geometry" />
        </mxCell>
        <mxCell id="-nBqssmfjM8b4evTU4LF-539" value="&lt;b&gt;False&lt;/b&gt;" style="edgeLabel;html=1;align=center;verticalAlign=middle;resizable=0;points=[];" vertex="1" connectable="0" parent="-nBqssmfjM8b4evTU4LF-524">
          <mxGeometry x="-0.1839" y="2" relative="1" as="geometry">
            <mxPoint as="offset" />
          </mxGeometry>
        </mxCell>
        <mxCell id="-nBqssmfjM8b4evTU4LF-532" value="" style="edgeStyle=orthogonalEdgeStyle;rounded=0;orthogonalLoop=1;jettySize=auto;html=1;" edge="1" parent="-nBqssmfjM8b4evTU4LF-105" source="-nBqssmfjM8b4evTU4LF-521" target="-nBqssmfjM8b4evTU4LF-531">
          <mxGeometry relative="1" as="geometry" />
        </mxCell>
        <mxCell id="-nBqssmfjM8b4evTU4LF-540" value="&lt;b&gt;Ture&lt;/b&gt;" style="edgeLabel;html=1;align=center;verticalAlign=middle;resizable=0;points=[];" vertex="1" connectable="0" parent="-nBqssmfjM8b4evTU4LF-532">
          <mxGeometry x="-0.17" y="-2" relative="1" as="geometry">
            <mxPoint y="-1" as="offset" />
          </mxGeometry>
        </mxCell>
        <mxCell id="-nBqssmfjM8b4evTU4LF-521" value="500 → 1" style="rhombus;whiteSpace=wrap;html=1;" vertex="1" parent="-nBqssmfjM8b4evTU4LF-105">
          <mxGeometry x="1110" y="1700" width="140" height="70" as="geometry" />
        </mxCell>
        <mxCell id="-nBqssmfjM8b4evTU4LF-523" value="เงิน 500 หมด/เหลือน้อย" style="shape=parallelogram;whiteSpace=wrap;html=1;" vertex="1" parent="-nBqssmfjM8b4evTU4LF-105">
          <mxGeometry x="894.75" y="1715" width="170" height="40" as="geometry" />
        </mxCell>
        <mxCell id="-nBqssmfjM8b4evTU4LF-527" value="" style="edgeStyle=orthogonalEdgeStyle;rounded=0;orthogonalLoop=1;jettySize=auto;html=1;exitX=0.106;exitY=0.469;exitDx=0;exitDy=0;exitPerimeter=0;" edge="1" parent="-nBqssmfjM8b4evTU4LF-105" target="-nBqssmfjM8b4evTU4LF-528">
          <mxGeometry relative="1" as="geometry">
            <mxPoint x="913" y="1739" as="sourcePoint" />
            <Array as="points">
              <mxPoint x="913" y="1735" />
            </Array>
          </mxGeometry>
        </mxCell>
        <mxCell id="-nBqssmfjM8b4evTU4LF-556" value="" style="edgeStyle=orthogonalEdgeStyle;rounded=0;orthogonalLoop=1;jettySize=auto;html=1;entryX=0;entryY=0.5;entryDx=0;entryDy=0;exitX=0.5;exitY=0;exitDx=0;exitDy=0;" edge="1" parent="-nBqssmfjM8b4evTU4LF-105" source="-nBqssmfjM8b4evTU4LF-528" target="-nBqssmfjM8b4evTU4LF-552">
          <mxGeometry relative="1" as="geometry">
            <mxPoint x="819.7499999999995" y="1635" as="targetPoint" />
          </mxGeometry>
        </mxCell>
        <mxCell id="-nBqssmfjM8b4evTU4LF-528" value="" style="ellipse;whiteSpace=wrap;html=1;" vertex="1" parent="-nBqssmfjM8b4evTU4LF-105">
          <mxGeometry x="800" y="1715" width="39.5" height="39.5" as="geometry" />
        </mxCell>
        <mxCell id="-nBqssmfjM8b4evTU4LF-534" value="" style="edgeStyle=orthogonalEdgeStyle;rounded=0;orthogonalLoop=1;jettySize=auto;html=1;" edge="1" parent="-nBqssmfjM8b4evTU4LF-105" source="-nBqssmfjM8b4evTU4LF-531" target="-nBqssmfjM8b4evTU4LF-533">
          <mxGeometry relative="1" as="geometry" />
        </mxCell>
        <mxCell id="-nBqssmfjM8b4evTU4LF-531" value="คำนวณจำนวนที่ใช้ได้" style="rectangle;whiteSpace=wrap;html=1;" vertex="1" parent="-nBqssmfjM8b4evTU4LF-105">
          <mxGeometry x="1080" y="1820" width="200" height="50" as="geometry" />
        </mxCell>
        <mxCell id="-nBqssmfjM8b4evTU4LF-536" value="" style="edgeStyle=orthogonalEdgeStyle;rounded=0;orthogonalLoop=1;jettySize=auto;html=1;" edge="1" parent="-nBqssmfjM8b4evTU4LF-105" source="-nBqssmfjM8b4evTU4LF-533" target="-nBqssmfjM8b4evTU4LF-535">
          <mxGeometry relative="1" as="geometry" />
        </mxCell>
        <mxCell id="-nBqssmfjM8b4evTU4LF-533" value="หักจากเงินทอน และลดจำนวนในเครื่อง" style="rectangle;whiteSpace=wrap;html=1;" vertex="1" parent="-nBqssmfjM8b4evTU4LF-105">
          <mxGeometry x="1080" y="1950" width="200" height="50" as="geometry" />
        </mxCell>
        <mxCell id="-nBqssmfjM8b4evTU4LF-544" value="" style="edgeStyle=orthogonalEdgeStyle;rounded=0;orthogonalLoop=1;jettySize=auto;html=1;" edge="1" parent="-nBqssmfjM8b4evTU4LF-105" source="-nBqssmfjM8b4evTU4LF-535" target="-nBqssmfjM8b4evTU4LF-543">
          <mxGeometry relative="1" as="geometry" />
        </mxCell>
        <mxCell id="-nBqssmfjM8b4evTU4LF-535" value="ไปยังหน่วยเงินถัดไป" style="rectangle;whiteSpace=wrap;html=1;" vertex="1" parent="-nBqssmfjM8b4evTU4LF-105">
          <mxGeometry x="1080" y="2080" width="200" height="50" as="geometry" />
        </mxCell>
        <mxCell id="-nBqssmfjM8b4evTU4LF-547" value="" style="edgeStyle=orthogonalEdgeStyle;rounded=0;orthogonalLoop=1;jettySize=auto;html=1;entryX=0.927;entryY=0.476;entryDx=0;entryDy=0;entryPerimeter=0;" edge="1" parent="-nBqssmfjM8b4evTU4LF-105" source="-nBqssmfjM8b4evTU4LF-543" target="-nBqssmfjM8b4evTU4LF-546">
          <mxGeometry relative="1" as="geometry" />
        </mxCell>
        <mxCell id="-nBqssmfjM8b4evTU4LF-551" value="" style="edgeStyle=orthogonalEdgeStyle;rounded=0;orthogonalLoop=1;jettySize=auto;html=1;" edge="1" parent="-nBqssmfjM8b4evTU4LF-105" source="-nBqssmfjM8b4evTU4LF-543" target="-nBqssmfjM8b4evTU4LF-550">
          <mxGeometry relative="1" as="geometry" />
        </mxCell>
        <mxCell id="-nBqssmfjM8b4evTU4LF-543" value="เงินทอนเหลือ = 0 หรือยัง?" style="rhombus;whiteSpace=wrap;html=1;" vertex="1" parent="-nBqssmfjM8b4evTU4LF-105">
          <mxGeometry x="1085.5" y="2203" width="190" height="90" as="geometry" />
        </mxCell>
        <mxCell id="-nBqssmfjM8b4evTU4LF-549" value="" style="edgeStyle=orthogonalEdgeStyle;rounded=0;orthogonalLoop=1;jettySize=auto;html=1;" edge="1" parent="-nBqssmfjM8b4evTU4LF-105" source="-nBqssmfjM8b4evTU4LF-546" target="-nBqssmfjM8b4evTU4LF-528">
          <mxGeometry relative="1" as="geometry">
            <mxPoint x="770" y="2248" as="targetPoint" />
          </mxGeometry>
        </mxCell>
        <mxCell id="-nBqssmfjM8b4evTU4LF-546" value="แจ้ง: ทอนเงินไม่ได้ครบ" style="shape=parallelogram;whiteSpace=wrap;html=1;" vertex="1" parent="-nBqssmfjM8b4evTU4LF-105">
          <mxGeometry x="850" y="2228" width="170" height="40" as="geometry" />
        </mxCell>
        <mxCell id="-nBqssmfjM8b4evTU4LF-550" value="แสดงรายการทอน" style="shape=parallelogram;whiteSpace=wrap;html=1;" vertex="1" parent="-nBqssmfjM8b4evTU4LF-105">
          <mxGeometry x="1095" y="2375" width="170" height="40" as="geometry" />
        </mxCell>
        <mxCell id="-nBqssmfjM8b4evTU4LF-552" value="" style="ellipse;whiteSpace=wrap;html=1;" vertex="1" parent="-nBqssmfjM8b4evTU4LF-105">
          <mxGeometry x="1165.6299999999999" y="1570.5" width="29.75" height="29.5" as="geometry" />
        </mxCell>
        <mxCell id="-nBqssmfjM8b4evTU4LF-557" value="&lt;font face=&quot;Sarabun&quot;&gt;รายการเงินในตู้&lt;/font&gt;" style="shape=process;whiteSpace=wrap;html=1;backgroundOutline=1;" vertex="1" parent="-nBqssmfjM8b4evTU4LF-105">
          <mxGeometry x="325.5" y="960" width="175" height="40" as="geometry" />
        </mxCell>
        <mxCell id="-nBqssmfjM8b4evTU4LF-558" value="" style="endArrow=classic;html=1;rounded=0;" edge="1" parent="-nBqssmfjM8b4evTU4LF-105">
          <mxGeometry width="50" height="50" relative="1" as="geometry">
            <mxPoint x="304.43000000000006" y="940" as="sourcePoint" />
            <mxPoint x="304.93000000000006" y="970" as="targetPoint" />
          </mxGeometry>
        </mxCell>
        <mxCell id="-nBqssmfjM8b4evTU4LF-559" value="" style="verticalLabelPosition=bottom;verticalAlign=top;html=1;shape=offPageConnector;rounded=0;size=0.5;" vertex="1" parent="-nBqssmfjM8b4evTU4LF-105">
          <mxGeometry x="290" y="970" width="30" height="30" as="geometry" />
        </mxCell>
        <mxCell id="-nBqssmfjM8b4evTU4LF-560" value="จ" style="text;html=1;align=center;verticalAlign=middle;resizable=0;points=[];autosize=1;strokeColor=none;fillColor=none;fontFamily=Sarabun;fontSource=https://fonts.googleapis.com/css?family=Sarabun;" vertex="1" parent="-nBqssmfjM8b4evTU4LF-105">
          <mxGeometry x="290" y="965" width="30" height="30" as="geometry" />
        </mxCell>
        <mxCell id="-nBqssmfjM8b4evTU4LF-575" value="" style="edgeStyle=orthogonalEdgeStyle;rounded=0;orthogonalLoop=1;jettySize=auto;html=1;" edge="1" parent="-nBqssmfjM8b4evTU4LF-105" source="-nBqssmfjM8b4evTU4LF-561" target="-nBqssmfjM8b4evTU4LF-567">
          <mxGeometry relative="1" as="geometry" />
        </mxCell>
        <mxCell id="-nBqssmfjM8b4evTU4LF-561" value="&lt;font face=&quot;Sarabun&quot;&gt;รายการเงินในตู้&lt;/font&gt;" style="shape=process;whiteSpace=wrap;html=1;backgroundOutline=1;" vertex="1" parent="-nBqssmfjM8b4evTU4LF-105">
          <mxGeometry x="700" y="60" width="175" height="40" as="geometry" />
        </mxCell>
        <mxCell id="-nBqssmfjM8b4evTU4LF-563" value="" style="endArrow=classic;html=1;rounded=0;" edge="1" parent="-nBqssmfjM8b4evTU4LF-105">
          <mxGeometry width="50" height="50" relative="1" as="geometry">
            <mxPoint x="674.71" y="62.5" as="sourcePoint" />
            <mxPoint x="675.21" y="92.5" as="targetPoint" />
          </mxGeometry>
        </mxCell>
        <mxCell id="-nBqssmfjM8b4evTU4LF-564" value="" style="verticalLabelPosition=bottom;verticalAlign=top;html=1;shape=offPageConnector;rounded=0;size=0.5;" vertex="1" parent="-nBqssmfjM8b4evTU4LF-105">
          <mxGeometry x="660" y="32.5" width="30" height="30" as="geometry" />
        </mxCell>
        <mxCell id="-nBqssmfjM8b4evTU4LF-565" value="จ" style="text;html=1;align=center;verticalAlign=middle;resizable=0;points=[];autosize=1;strokeColor=none;fillColor=none;fontFamily=Sarabun;fontSource=https://fonts.googleapis.com/css?family=Sarabun;" vertex="1" parent="-nBqssmfjM8b4evTU4LF-105">
          <mxGeometry x="660" y="27.5" width="30" height="30" as="geometry" />
        </mxCell>
        <mxCell id="-nBqssmfjM8b4evTU4LF-566" value="" style="edgeStyle=orthogonalEdgeStyle;rounded=0;orthogonalLoop=1;jettySize=auto;html=1;" edge="1" parent="-nBqssmfjM8b4evTU4LF-105" source="-nBqssmfjM8b4evTU4LF-567" target="-nBqssmfjM8b4evTU4LF-569">
          <mxGeometry relative="1" as="geometry" />
        </mxCell>
        <mxCell id="-nBqssmfjM8b4evTU4LF-567" value="ID:C01 ชื่อ:&amp;nbsp; 500 จำนวน: 50" style="shape=parallelogram;perimeter=parallelogramPerimeter;whiteSpace=wrap;html=1;fixedSize=1;fontFamily=Sarabun;fontSource=https://fonts.googleapis.com/css?family=Sarabun;" vertex="1" parent="-nBqssmfjM8b4evTU4LF-105">
          <mxGeometry x="697.5" y="160" width="180" height="60" as="geometry" />
        </mxCell>
        <mxCell id="-nBqssmfjM8b4evTU4LF-568" value="" style="edgeStyle=orthogonalEdgeStyle;rounded=0;orthogonalLoop=1;jettySize=auto;html=1;" edge="1" parent="-nBqssmfjM8b4evTU4LF-105" source="-nBqssmfjM8b4evTU4LF-569" target="-nBqssmfjM8b4evTU4LF-571">
          <mxGeometry relative="1" as="geometry" />
        </mxCell>
        <mxCell id="-nBqssmfjM8b4evTU4LF-569" value="ID:C02 ชื่อ:&amp;nbsp; 100 จำนวน: 50" style="shape=parallelogram;perimeter=parallelogramPerimeter;whiteSpace=wrap;html=1;fixedSize=1;fontFamily=Sarabun;fontSource=https://fonts.googleapis.com/css?family=Sarabun;" vertex="1" parent="-nBqssmfjM8b4evTU4LF-105">
          <mxGeometry x="687.5" y="300" width="200" height="60" as="geometry" />
        </mxCell>
        <mxCell id="-nBqssmfjM8b4evTU4LF-570" value="" style="edgeStyle=orthogonalEdgeStyle;rounded=0;orthogonalLoop=1;jettySize=auto;html=1;" edge="1" parent="-nBqssmfjM8b4evTU4LF-105" source="-nBqssmfjM8b4evTU4LF-571" target="-nBqssmfjM8b4evTU4LF-573">
          <mxGeometry relative="1" as="geometry" />
        </mxCell>
        <mxCell id="-nBqssmfjM8b4evTU4LF-571" value="ID:C03 ชื่อ:&amp;nbsp; 20 จำนวน: 50" style="shape=parallelogram;perimeter=parallelogramPerimeter;whiteSpace=wrap;html=1;fixedSize=1;fontFamily=Sarabun;fontSource=https://fonts.googleapis.com/css?family=Sarabun;" vertex="1" parent="-nBqssmfjM8b4evTU4LF-105">
          <mxGeometry x="688" y="440" width="200" height="60" as="geometry" />
        </mxCell>
        <mxCell id="-nBqssmfjM8b4evTU4LF-572" value="" style="edgeStyle=orthogonalEdgeStyle;rounded=0;orthogonalLoop=1;jettySize=auto;html=1;" edge="1" parent="-nBqssmfjM8b4evTU4LF-105" source="-nBqssmfjM8b4evTU4LF-573" target="-nBqssmfjM8b4evTU4LF-574">
          <mxGeometry relative="1" as="geometry" />
        </mxCell>
        <mxCell id="-nBqssmfjM8b4evTU4LF-573" value="ID:C04 ชื่อ:&amp;nbsp; 10 จำนวน: 50" style="shape=parallelogram;perimeter=parallelogramPerimeter;whiteSpace=wrap;html=1;fixedSize=1;fontFamily=Sarabun;fontSource=https://fonts.googleapis.com/css?family=Sarabun;" vertex="1" parent="-nBqssmfjM8b4evTU4LF-105">
          <mxGeometry x="672.25" y="580" width="230.5" height="60" as="geometry" />
        </mxCell>
        <mxCell id="-nBqssmfjM8b4evTU4LF-577" value="" style="edgeStyle=orthogonalEdgeStyle;rounded=0;orthogonalLoop=1;jettySize=auto;html=1;" edge="1" parent="-nBqssmfjM8b4evTU4LF-105" source="-nBqssmfjM8b4evTU4LF-574" target="-nBqssmfjM8b4evTU4LF-576">
          <mxGeometry relative="1" as="geometry" />
        </mxCell>
        <mxCell id="-nBqssmfjM8b4evTU4LF-574" value="ID:C05 ชื่อ:&amp;nbsp; 5 จำนวน: 50" style="shape=parallelogram;perimeter=parallelogramPerimeter;whiteSpace=wrap;html=1;fixedSize=1;fontFamily=Sarabun;fontSource=https://fonts.googleapis.com/css?family=Sarabun;" vertex="1" parent="-nBqssmfjM8b4evTU4LF-105">
          <mxGeometry x="672.25" y="720" width="230.5" height="60" as="geometry" />
        </mxCell>
        <mxCell id="-nBqssmfjM8b4evTU4LF-579" value="" style="edgeStyle=orthogonalEdgeStyle;rounded=0;orthogonalLoop=1;jettySize=auto;html=1;" edge="1" parent="-nBqssmfjM8b4evTU4LF-105" source="-nBqssmfjM8b4evTU4LF-576" target="-nBqssmfjM8b4evTU4LF-578">
          <mxGeometry relative="1" as="geometry" />
        </mxCell>
        <mxCell id="-nBqssmfjM8b4evTU4LF-576" value="ID:C06 ชื่อ:&amp;nbsp; 2 จำนวน: 50" style="shape=parallelogram;perimeter=parallelogramPerimeter;whiteSpace=wrap;html=1;fixedSize=1;fontFamily=Sarabun;fontSource=https://fonts.googleapis.com/css?family=Sarabun;" vertex="1" parent="-nBqssmfjM8b4evTU4LF-105">
          <mxGeometry x="672.25" y="860" width="230.5" height="60" as="geometry" />
        </mxCell>
        <mxCell id="-nBqssmfjM8b4evTU4LF-578" value="ID:C07 ชื่อ:&amp;nbsp; 1 จำนวน: 50" style="shape=parallelogram;perimeter=parallelogramPerimeter;whiteSpace=wrap;html=1;fixedSize=1;fontFamily=Sarabun;fontSource=https://fonts.googleapis.com/css?family=Sarabun;" vertex="1" parent="-nBqssmfjM8b4evTU4LF-105">
          <mxGeometry x="672.25" y="1000" width="230.5" height="60" as="geometry" />
        </mxCell>
      </root>
    </mxGraphModel>
  </diagram>
</mxfile>
